  0
SECTION
  2
HEADER
  9
$ACADVER
  1
AC1014
  9
$HANDSEED
  5
FFFF
  9
$INSUNITS
 70
     0
  9
$MEASUREMENT
 70
     1
  0
ENDSEC
  0
SECTION
  2
TABLES
  0
TABLE
  2
VPORT
  5
8
330
0
100
AcDbSymbolTable
 70
     4
  0
VPORT
  5
2E
330
8
100
AcDbSymbolTableRecord
100
AcDbViewportTableRecord
  2
*ACTIVE
 70
     0
 10
0.0
 20
0.0
 11
1.0
 21
1.0
 12
210.0
 22
148.5
 13
0.0
 23
0.0
 14
10.0
 24
10.0
 15
10.0
 25
10.0
 16
0.0
 26
0.0
 36
1.0
 17
0.0
 27
0.0
 37
0.0
 40
341.0
 41
1.24
 42
50.0
 43
0.0
 44
0.0
 50
0.0
 51
0.0
 71
     0
 72
   100
 73
     1
 74
     3
 75
     0
 76
     0
 77
     0
 78
     0
  0
ENDTAB
  0
TABLE
  2
LTYPE
  5
5
330
0
100
AcDbSymbolTable
 70
     1
  0
LTYPE
  5
14
330
5
100
AcDbSymbolTableRecord
100
AcDbLinetypeTableRecord
  2
BYBLOCK
 70
     0
  3

 72
    65
 73
     0
 40
0.0
  0
LTYPE
  5
15
330
5
100
AcDbSymbolTableRecord
100
AcDbLinetypeTableRecord
  2
BYLAYER
 70
     0
  3

 72
    65
 73
     0
 40
0.0
  0
LTYPE
  5
16
330
5
100
AcDbSymbolTableRecord
100
AcDbLinetypeTableRecord
  2
CONTINUOUS
 70
     0
  3
Solid line
 72
    65
 73
     0
 40
0.0
  0
ENDTAB
  0
TABLE
  2
LAYER
  5
2
100
AcDbSymbolTable
 70
2
  0
LAYER
  5
50
100
AcDbSymbolTableRecord
100
AcDbLayerTableRecord
  2
0
 70
0
  6
CONTINUOUS
  0
LAYER
  5
51
100
AcDbSymbolTableRecord
100
AcDbLayerTableRecord
  2
Layer_0
 70
0
  6
CONTINUOUS
  0
ENDTAB
  0
TABLE
  2
STYLE
  5
3
330
0
100
AcDbSymbolTable
 70
     1
  0
STYLE
  5
11
330
3
100
AcDbSymbolTableRecord
100
AcDbTextStyleTableRecord
  2
STANDARD
 70
     0
 40
0.0
 41
1.0
 50
0.0
 71
     0
 42
2.5
  3
txt
  4

  0
ENDTAB
  0
TABLE
  2
VIEW
  5
6
330
0
100
AcDbSymbolTable
 70
     0
  0
ENDTAB
  0
TABLE
  2
UCS
  5
7
330
0
100
AcDbSymbolTable
 70
     0
  0
ENDTAB
  0
TABLE
  2
APPID
  5
9
330
0
100
AcDbSymbolTable
 70
     2
  0
APPID
  5
12
330
9
100
AcDbSymbolTableRecord
100
AcDbRegAppTableRecord
  2
ACAD
 70
     0
  0
ENDTAB
  0
TABLE
  2
DIMSTYLE
  5
A
330
0
100
AcDbSymbolTable
 70
     1
  0
DIMSTYLE
105
27
330
A
100
AcDbSymbolTableRecord
100
AcDbDimStyleTableRecord
  2
ISO-25
 70
     0
  3

  4

  5

  6

  7

 40
1.0
 41
2.5
 42
0.625
 43
3.75
 44
1.25
 45
0.0
 46
0.0
 47
0.0
 48
0.0
140
2.5
141
2.5
142
0.0
143
0.03937007874016
144
1.0
145
0.0
146
1.0
147
0.625
 71
     0
 72
     0
 73
     0
 74
     0
 75
     0
 76
     0
 77
     1
 78
     8
170
     0
171
     3
172
     1
173
     0
174
     0
175
     0
176
     0
177
     0
178
     0
270
     2
271
     2
272
     2
273
     2
274
     3
340
11
275
     0
280
     0
281
     0
282
     0
283
     0
284
     8
285
     0
286
     0
287
     3
288
     0
  0
ENDTAB
  0
TABLE
  2
BLOCK_RECORD
  5
1
330
0
100
AcDbSymbolTable
 70
     1
  0
BLOCK_RECORD
  5
1F
330
1
100
AcDbSymbolTableRecord
100
AcDbBlockTableRecord
  2
*MODEL_SPACE
  0
BLOCK_RECORD
  5
1B
330
1
100
AcDbSymbolTableRecord
100
AcDbBlockTableRecord
  2
*PAPER_SPACE
  0
ENDTAB
  0
ENDSEC
  0
SECTION
  2
BLOCKS
  0
BLOCK
  5
20
330
1F
100
AcDbEntity
  8
0
100
AcDbBlockBegin
  2
*MODEL_SPACE
 70
     0
 10
0.0
 20
0.0
 30
0.0
  3
*MODEL_SPACE
  1

  0
ENDBLK
  5
21
330
1F
100
AcDbEntity
  8
0
100
AcDbBlockEnd
  0
BLOCK
  5
1C
330
1B
100
AcDbEntity
 67
     1
  8
0
100
AcDbBlockBegin
  2
*PAPER_SPACE
  1

  0
ENDBLK
  5
1D
330
1B
100
AcDbEntity
 67
     1
  8
0
100
AcDbBlockEnd
  0
ENDSEC
  0
SECTION
  2
ENTITIES
  0
SPLINE
  5
100
100
AcDbEntity
  8
Layer_0
 62
7
100
AcDbSpline
 70
8
 71
3
 72
8
 73
4
 74
0
 40
0
 40
0
 40
0
 40
0
 40
1
 40
1
 40
1
 40
1
 10
473.712408
 20
337.845436
 30
0.0
 10
471.390820
 20
337.834333
 30
0.0
 10
469.095016
 20
337.357923
 30
0.0
 10
466.960698
 20
336.444366
 30
0.0
  0
LWPOLYLINE
  5
101
100
AcDbEntity
  8
Layer_0
 62
7
100
AcDbPolyline
 90
225
 70
0
 10
466.960728
 20
336.444416
 30
0.0
 10
465.676068
 20
335.840716
 30
0.0
 10
464.646028
 20
335.249856
 30
0.0
 10
463.857508
 20
334.653256
 30
0.0
 10
463.297378
 20
334.032176
 30
0.0
 10
462.952388
 20
333.367956
 30
0.0
 10
462.809478
 20
332.641906
 30
0.0
 10
462.855478
 20
331.835356
 30
0.0
 10
463.077188
 20
330.929596
 30
0.0
 10
463.293078
 20
330.367206
 30
0.0
 10
463.566188
 20
329.936376
 30
0.0
 10
463.935858
 20
329.627436
 30
0.0
 10
464.441448
 20
329.430786
 30
0.0
 10
465.122288
 20
329.336786
 30
0.0
 10
466.017698
 20
329.335806
 30
0.0
 10
467.167058
 20
329.418206
 30
0.0
 10
468.609698
 20
329.574346
 30
0.0
 10
470.642218
 20
329.719366
 30
0.0
 10
472.467388
 20
329.636866
 30
0.0
 10
474.113218
 20
329.312886
 30
0.0
 10
475.607719
 20
328.733486
 30
0.0
 10
476.978899
 20
327.884676
 30
0.0
 10
478.254869
 20
326.752486
 30
0.0
 10
479.463559
 20
325.322946
 30
0.0
 10
480.633019
 20
323.582096
 30
0.0
 10
481.057309
 20
322.744256
 30
0.0
 10
481.432659
 20
321.718456
 30
0.0
 10
481.758409
 20
320.529486
 30
0.0
 10
482.033939
 20
319.202116
 30
0.0
 10
482.431919
 20
316.231146
 30
0.0
 10
482.621469
 20
313.003616
 30
0.0
 10
482.597669
 20
309.717586
 30
0.0
 10
482.355329
 20
306.571085
 30
0.0
 10
482.150659
 20
305.112035
 30
0.0
 10
481.889459
 20
303.762185
 30
0.0
 10
481.571149
 20
302.546195
 30
0.0
 10
481.195089
 20
301.488905
 30
0.0
 10
480.352739
 20
299.871805
 30
0.0
 10
479.230529
 20
298.340565
 30
0.0
 10
477.866529
 20
296.922635
 30
0.0
 10
476.298669
 20
295.645495
 30
0.0
 10
474.564959
 20
294.536585
 30
0.0
 10
472.703388
 20
293.623375
 30
0.0
 10
470.752018
 20
292.933345
 30
0.0
 10
468.748798
 20
292.493895
 30
0.0
 10
465.941478
 20
291.882405
 30
0.0
 10
463.193118
 20
290.914395
 30
0.0
 10
460.513998
 20
289.603995
 30
0.0
 10
457.914248
 20
287.965415
 30
0.0
 10
455.404188
 20
286.012875
 30
0.0
 10
452.993948
 20
283.760505
 30
0.0
 10
450.693768
 20
281.222555
 30
0.0
 10
448.513888
 20
278.413195
 30
0.0
 10
446.464438
 20
275.346555
 30
0.0
 10
444.555698
 20
272.036905
 30
0.0
 10
442.797878
 20
268.498355
 30
0.0
 10
441.201148
 20
264.745175
 30
0.0
 10
439.775738
 20
260.791485
 30
0.0
 10
438.531888
 20
256.651505
 30
0.0
 10
437.479748
 20
252.339405
 30
0.0
 10
436.629618
 20
247.869394
 30
0.0
 10
436.179098
 20
245.141894
 30
0.0
 10
435.742028
 20
242.533724
 30
0.0
 10
435.316908
 20
240.039614
 30
0.0
 10
434.902298
 20
237.654204
 30
0.0
 10
434.098618
 20
233.188194
 30
0.0
 10
433.319318
 20
229.093194
 30
0.0
 10
432.552568
 20
225.326664
 30
0.0
 10
431.786678
 20
221.846024
 30
0.0
 10
431.009878
 20
218.608744
 30
0.0
 10
430.210388
 20
215.572274
 30
0.0
 10
428.496418
 20
209.931474
 30
0.0
 10
426.550748
 20
204.583214
 30
0.0
 10
425.461638
 20
201.912414
 30
0.0
 10
424.279408
 20
199.187114
 30
0.0
 10
422.992208
 20
196.364714
 30
0.0
 10
421.588348
 20
193.402693
 30
0.0
 10
419.497468
 20
189.262033
 30
0.0
 10
417.193737
 20
185.071903
 30
0.0
 10
414.701397
 20
180.861993
 30
0.0
 10
412.044847
 20
176.662143
 30
0.0
 10
409.248407
 20
172.502023
 30
0.0
 10
406.336327
 20
168.411473
 30
0.0
 10
403.333037
 20
164.420223
 30
0.0
 10
400.262737
 20
160.558033
 30
0.0
 10
397.149877
 20
156.854663
 30
0.0
 10
394.018697
 20
153.339893
 30
0.0
 10
390.893517
 20
150.043463
 30
0.0
 10
387.798727
 20
146.995163
 30
0.0
 10
384.758587
 20
144.224733
 30
0.0
 10
381.797437
 20
141.761913
 30
0.0
 10
380.354117
 20
140.655153
 30
0.0
 10
378.939627
 20
139.636493
 30
0.0
 10
377.557077
 20
138.709642
 30
0.0
 10
376.209487
 20
137.878262
 30
0.0
 10
375.031747
 20
137.164152
 30
0.0
 10
373.968107
 20
136.474472
 30
0.0
 10
373.017067
 20
135.806772
 30
0.0
 10
372.177257
 20
135.158662
 30
0.0
 10
371.447087
 20
134.527742
 30
0.0
 10
370.825127
 20
133.911492
 30
0.0
 10
370.309947
 20
133.307602
 30
0.0
 10
369.900057
 20
132.713572
 30
0.0
 10
369.593947
 20
132.126992
 30
0.0
 10
369.390197
 20
131.545472
 30
0.0
 10
369.287317
 20
130.966562
 30
0.0
 10
369.284317
 20
130.387842
 30
0.0
 10
369.378817
 20
129.806892
 30
0.0
 10
369.569727
 20
129.221252
 30
0.0
 10
369.855607
 20
128.628582
 30
0.0
 10
370.235037
 20
128.026352
 30
0.0
 10
370.736837
 20
127.492652
 30
0.0
 10
371.435067
 20
127.033402
 30
0.0
 10
372.318877
 20
126.648532
 30
0.0
 10
373.377297
 20
126.337892
 30
0.0
 10
374.599517
 20
126.101362
 30
0.0
 10
375.974627
 20
125.938732
 30
0.0
 10
377.491727
 20
125.849932
 30
0.0
 10
379.139977
 20
125.834832
 30
0.0
 10
380.908497
 20
125.893232
 30
0.0
 10
382.786357
 20
126.025062
 30
0.0
 10
384.762667
 20
126.230142
 30
0.0
 10
386.826627
 20
126.508352
 30
0.0
 10
391.173767
 20
127.283572
 30
0.0
 10
395.740717
 20
128.349622
 30
0.0
 10
400.212927
 20
129.594372
 30
0.0
 10
404.583837
 20
130.972802
 30
0.0
 10
408.858747
 20
132.488092
 30
0.0
 10
413.043057
 20
134.143522
 30
0.0
 10
417.142067
 20
135.942322
 30
0.0
 10
421.161108
 20
137.887712
 30
0.0
 10
425.105538
 20
139.982903
 30
0.0
 10
428.980688
 20
142.231113
 30
0.0
 10
432.791888
 20
144.635613
 30
0.0
 10
436.544428
 20
147.199603
 30
0.0
 10
440.243718
 20
149.926343
 30
0.0
 10
443.895038
 20
152.819003
 30
0.0
 10
447.503768
 20
155.880913
 30
0.0
 10
451.075238
 20
159.115203
 30
0.0
 10
454.614728
 20
162.525133
 30
0.0
 10
458.127608
 20
166.113943
 30
0.0
 10
463.201928
 20
171.633643
 30
0.0
 10
467.969988
 20
177.215213
 30
0.0
 10
472.465848
 20
182.907333
 30
0.0
 10
476.723409
 20
188.758613
 30
0.0
 10
480.776619
 20
194.817793
 30
0.0
 10
484.659509
 20
201.133464
 30
0.0
 10
488.405969
 20
207.754364
 30
0.0
 10
492.049959
 20
214.729144
 30
0.0
 10
493.658679
 20
217.977234
 30
0.0
 10
495.126839
 20
221.048284
 30
0.0
 10
496.459799
 20
223.960944
 30
0.0
 10
497.662939
 20
226.733864
 30
0.0
 10
498.741659
 20
229.385654
 30
0.0
 10
499.701319
 20
231.934984
 30
0.0
 10
500.547289
 20
234.400524
 30
0.0
 10
501.285009
 20
236.800904
 30
0.0
 10
502.457119
 20
241.480634
 30
0.0
 10
503.260689
 20
246.123484
 30
0.0
 10
503.537689
 20
248.477644
 30
0.0
 10
503.738759
 20
250.878474
 30
0.0
 10
503.869189
 20
253.344685
 30
0.0
 10
503.934389
 20
255.894855
 30
0.0
 10
503.956789
 20
257.797275
 30
0.0
 10
503.968689
 20
259.494815
 30
0.0
 10
503.966689
 20
261.007455
 30
0.0
 10
503.948389
 20
262.355045
 30
0.0
 10
503.910489
 20
263.557465
 30
0.0
 10
503.849789
 20
264.634635
 30
0.0
 10
503.763289
 20
265.606385
 30
0.0
 10
503.647979
 20
266.492685
 30
0.0
 10
503.318519
 20
268.088405
 30
0.0
 10
502.836889
 20
269.580895
 30
0.0
 10
502.178609
 20
271.129295
 30
0.0
 10
501.319259
 20
272.892745
 30
0.0
 10
499.999069
 20
275.304165
 30
0.0
 10
498.449879
 20
277.804625
 30
0.0
 10
497.649759
 20
278.995965
 30
0.0
 10
496.864789
 20
280.098865
 30
0.0
 10
496.119089
 20
281.076365
 30
0.0
 10
495.436769
 20
281.891615
 30
0.0
 10
494.460669
 20
283.014245
 30
0.0
 10
493.593869
 20
284.077505
 30
0.0
 10
492.831279
 20
285.103305
 30
0.0
 10
492.167859
 20
286.113605
 30
0.0
 10
491.598539
 20
287.130415
 30
0.0
 10
491.118239
 20
288.175605
 30
0.0
 10
490.721849
 20
289.271175
 30
0.0
 10
490.404369
 20
290.439125
 30
0.0
 10
490.160659
 20
291.701335
 30
0.0
 10
489.985709
 20
293.079805
 30
0.0
 10
489.874399
 20
294.596495
 30
0.0
 10
489.821699
 20
296.273315
 30
0.0
 10
489.822499
 20
298.132285
 30
0.0
 10
489.871799
 20
300.195335
 30
0.0
 10
489.964399
 20
302.484405
 30
0.0
 10
490.095359
 20
305.021455
 30
0.0
 10
490.213699
 20
307.183006
 30
0.0
 10
490.312099
 20
309.097976
 30
0.0
 10
490.388299
 20
310.789956
 30
0.0
 10
490.439899
 20
312.282646
 30
0.0
 10
490.464499
 20
313.599546
 30
0.0
 10
490.459499
 20
314.764316
 30
0.0
 10
490.423099
 20
315.800556
 30
0.0
 10
490.352799
 20
316.731866
 30
0.0
 10
490.100779
 20
318.374066
 30
0.0
 10
489.684609
 20
319.879836
 30
0.0
 10
489.085599
 20
321.437906
 30
0.0
 10
488.284899
 20
323.237146
 30
0.0
 10
487.693139
 20
324.435106
 30
0.0
 10
486.974729
 20
325.733226
 30
0.0
 10
486.157259
 20
327.090076
 30
0.0
 10
485.268389
 20
328.464466
 30
0.0
 10
484.335679
 20
329.814966
 30
0.0
 10
483.386829
 20
331.100346
 30
0.0
 10
482.449389
 20
332.279256
 30
0.0
 10
481.550999
 20
333.310346
 30
0.0
 10
480.321669
 20
334.610316
 30
0.0
 10
479.259349
 20
335.645416
 30
0.0
 10
478.316249
 20
336.443386
 30
0.0
 10
477.444429
 20
337.031896
 30
0.0
 10
476.596029
 20
337.438646
 30
0.0
 10
475.723149
 20
337.691346
 30
0.0
 10
474.777889
 20
337.817736
 30
0.0
 10
473.712408
 20
337.845436
 30
0.0
  0
LWPOLYLINE
  5
102
100
AcDbEntity
  8
Layer_0
 62
7
100
AcDbPolyline
 90
1
 70
1
 10
466.960698
 20
336.444366
 30
0.0
  0
SPLINE
  5
103
100
AcDbEntity
  8
Layer_0
 62
7
100
AcDbSpline
 70
8
 71
3
 72
8
 73
4
 74
0
 40
0
 40
0
 40
0
 40
0
 40
1
 40
1
 40
1
 40
1
 10
483.199049
 20
284.393445
 30
0.0
 10
481.129122
 20
284.845683
 30
0.0
 10
479.116707
 20
285.529589
 30
0.0
 10
477.199849
 20
286.432235
 30
0.0
  0
LWPOLYLINE
  5
104
100
AcDbEntity
  8
Layer_0
 62
7
100
AcDbPolyline
 90
3
 70
0
 10
483.588649
 20
285.220895
 30
0.0
 10
486.088309
 20
283.787545
 30
0.0
 10
483.199049
 20
284.393445
 30
0.0
  0
LWPOLYLINE
  5
105
100
AcDbEntity
  8
Layer_0
 62
7
100
AcDbPolyline
 90
8
 70
0
 10
477.199849
 20
286.432235
 30
0.0
 10
474.089818
 20
287.865125
 30
0.0
 10
477.589329
 20
287.259685
 30
0.0
 10
479.145399
 20
286.911445
 30
0.0
 10
480.795199
 20
286.410995
 30
0.0
 10
482.341889
 20
285.825165
 30
0.0
 10
483.588609
 20
285.220855
 30
0.0
 10
483.588649
 20
285.220895
 30
0.0
  0
LWPOLYLINE
  5
106
100
AcDbEntity
  8
Layer_0
 62
7
100
AcDbPolyline
 90
34
 70
1
 10
463.200208
 20
280.879085
 30
0.0
 10
461.903418
 20
280.226025
 30
0.0
 10
460.759348
 20
279.660335
 30
0.0
 10
459.765868
 20
279.182045
 30
0.0
 10
458.920768
 20
278.791205
 30
0.0
 10
458.221818
 20
278.487815
 30
0.0
 10
457.666868
 20
278.271935
 30
0.0
 10
457.253728
 20
278.143535
 30
0.0
 10
456.980168
 20
278.102735
 30
0.0
 10
456.843988
 20
278.149535
 30
0.0
 10
456.843048
 20
278.283935
 30
0.0
 10
456.975098
 20
278.506015
 30
0.0
 10
457.237968
 20
278.815785
 30
0.0
 10
457.629488
 20
279.213275
 30
0.0
 10
458.147438
 20
279.698495
 30
0.0
 10
458.789618
 20
280.271505
 30
0.0
 10
459.553838
 20
280.932355
 30
0.0
 10
461.226688
 20
282.188035
 30
0.0
 10
462.904648
 20
283.114465
 30
0.0
 10
463.728138
 20
283.446345
 30
0.0
 10
464.531998
 20
283.686425
 30
0.0
 10
465.309298
 20
283.831595
 30
0.0
 10
466.052998
 20
283.878695
 30
0.0
 10
466.940358
 20
283.857595
 30
0.0
 10
467.520478
 20
283.786095
 30
0.0
 10
467.769248
 20
283.638765
 30
0.0
 10
467.662618
 20
283.390375
 30
0.0
 10
467.468468
 20
283.220335
 30
0.0
 10
467.176458
 20
283.015525
 30
0.0
 10
466.783578
 20
282.772765
 30
0.0
 10
466.286758
 20
282.488925
 30
0.0
 10
465.683018
 20
282.160785
 30
0.0
 10
464.969368
 20
281.785215
 30
0.0
 10
464.142788
 20
281.359035
 30
0.0
  0
SPLINE
  5
107
100
AcDbEntity
  8
Layer_0
 62
7
100
AcDbSpline
 70
8
 71
3
 72
8
 73
4
 74
0
 40
0
 40
0
 40
0
 40
0
 40
1
 40
1
 40
1
 40
1
 10
411.124027
 20
162.406183
 30
0.0
 10
412.121510
 20
164.179326
 30
0.0
 10
413.285717
 20
165.853365
 30
0.0
 10
414.600857
 20
167.405593
 30
0.0
  0
LWPOLYLINE
  5
108
100
AcDbEntity
  8
Layer_0
 62
7
100
AcDbPolyline
 90
91
 70
0
 10
481.588859
 20
279.243115
 30
0.0
 10
483.189979
 20
278.900735
 30
0.0
 10
484.725339
 20
278.461555
 30
0.0
 10
486.211189
 20
277.917445
 30
0.0
 10
487.663809
 20
277.260335
 30
0.0
 10
489.099459
 20
276.482135
 30
0.0
 10
490.534469
 20
275.574745
 30
0.0
 10
491.985059
 20
274.530085
 30
0.0
 10
493.467499
 20
273.340105
 30
0.0
 10
494.169889
 20
272.728345
 30
0.0
 10
494.780619
 20
272.155375
 30
0.0
 10
495.299469
 20
271.625975
 30
0.0
 10
495.726219
 20
271.144955
 30
0.0
 10
496.060629
 20
270.717105
 30
0.0
 10
496.302489
 20
270.347245
 30
0.0
 10
496.451589
 20
270.040235
 30
0.0
 10
496.507689
 20
269.800805
 30
0.0
 10
496.470589
 20
269.633825
 30
0.0
 10
496.340009
 20
269.544125
 30
0.0
 10
496.115769
 20
269.536125
 30
0.0
 10
495.797609
 20
269.615325
 30
0.0
 10
495.385339
 20
269.786155
 30
0.0
 10
494.878729
 20
270.053485
 30
0.0
 10
494.277519
 20
270.422135
 30
0.0
 10
493.581519
 20
270.896845
 30
0.0
 10
492.845569
 20
271.367475
 30
0.0
 10
491.941319
 20
271.857075
 30
0.0
 10
490.890949
 20
272.358885
 30
0.0
 10
489.716649
 20
272.866015
 30
0.0
 10
487.085119
 20
273.869185
 30
0.0
 10
484.224319
 20
274.812135
 30
0.0
 10
481.311739
 20
275.640345
 30
0.0
 10
478.525019
 20
276.299375
 30
0.0
 10
477.234349
 20
276.548415
 30
0.0
 10
476.041719
 20
276.734745
 30
0.0
 10
474.969309
 20
276.851535
 30
0.0
 10
474.039358
 20
276.891935
 30
0.0
 10
473.072898
 20
276.838135
 30
0.0
 10
472.043198
 20
276.681435
 30
0.0
 10
470.962328
 20
276.428745
 30
0.0
 10
469.842308
 20
276.086885
 30
0.0
 10
467.532868
 20
275.163355
 30
0.0
 10
465.211248
 20
273.966115
 30
0.0
 10
462.973728
 20
272.550305
 30
0.0
 10
460.916538
 20
270.971145
 30
0.0
 10
459.136038
 20
269.283775
 30
0.0
 10
457.728468
 20
267.543415
 30
0.0
 10
456.635128
 20
265.802445
 30
0.0
 10
455.529948
 20
263.782555
 30
0.0
 10
454.416998
 20
261.496815
 30
0.0
 10
453.300258
 20
258.958325
 30
0.0
 10
452.183828
 20
256.180185
 30
0.0
 10
451.071738
 20
253.175535
 30
0.0
 10
449.968038
 20
249.957454
 30
0.0
 10
448.876698
 20
246.539024
 30
0.0
 10
447.801878
 20
242.933394
 30
0.0
 10
446.747508
 20
239.153644
 30
0.0
 10
445.717698
 20
235.212884
 30
0.0
 10
444.716418
 20
231.124184
 30
0.0
 10
443.747808
 20
226.900674
 30
0.0
 10
442.815808
 20
222.555464
 30
0.0
 10
441.924558
 20
218.101634
 30
0.0
 10
441.078018
 20
213.552334
 30
0.0
 10
440.559848
 20
210.847924
 30
0.0
 10
439.990308
 20
208.247954
 30
0.0
 10
439.362798
 20
205.738304
 30
0.0
 10
438.670648
 20
203.304784
 30
0.0
 10
437.065908
 20
198.609814
 30
0.0
 10
435.122958
 20
194.050083
 30
0.0
 10
434.008078
 20
191.785653
 30
0.0
 10
432.788728
 20
189.512643
 30
0.0
 10
431.458298
 20
187.216993
 30
0.0
 10
430.010128
 20
184.884573
 30
0.0
 10
428.437548
 20
182.501243
 30
0.0
 10
426.733998
 20
180.052903
 30
0.0
 10
424.892758
 20
177.525423
 30
0.0
 10
422.907258
 20
174.904653
 30
0.0
 10
420.545058
 20
171.921663
 30
0.0
 10
418.163277
 20
169.054363
 30
0.0
 10
417.007837
 20
167.709423
 30
0.0
 10
415.898767
 20
166.447813
 30
0.0
 10
414.853277
 20
165.287683
 30
0.0
 10
413.888367
 20
164.247183
 30
0.0
 10
413.021187
 20
163.344443
 30
0.0
 10
412.268877
 20
162.597613
 30
0.0
 10
411.648467
 20
162.024783
 30
0.0
 10
411.177087
 20
161.644143
 30
0.0
 10
410.871847
 20
161.473843
 30
0.0
 10
410.749847
 20
161.531943
 30
0.0
 10
410.828247
 20
161.836683
 30
0.0
 10
411.124027
 20
162.406183
 30
0.0
  0
SPLINE
  5
109
100
AcDbEntity
  8
Layer_0
 62
7
100
AcDbSpline
 70
8
 71
3
 72
8
 73
4
 74
0
 40
0
 40
0
 40
0
 40
0
 40
1
 40
1
 40
1
 40
1
 10
474.089868
 20
280.689185
 30
0.0
 10
476.584266
 20
280.180053
 30
0.0
 10
479.084088
 20
279.697872
 30
0.0
 10
481.588899
 20
279.242725
 30
0.0
  0
LWPOLYLINE
  5
10a
100
AcDbEntity
  8
Layer_0
 62
7
100
AcDbPolyline
 90
47
 70
0
 10
414.600857
 20
167.405593
 30
0.0
 10
416.007977
 20
169.100973
 30
0.0
 10
417.450807
 20
170.986433
 30
0.0
 10
418.918888
 20
173.042533
 30
0.0
 10
420.401828
 20
175.249813
 30
0.0
 10
423.370418
 20
180.040093
 30
0.0
 10
426.273138
 20
185.201803
 30
0.0
 10
429.026518
 20
190.579353
 30
0.0
 10
431.547048
 20
196.017224
 30
0.0
 10
432.693908
 20
198.710174
 30
0.0
 10
433.751268
 20
201.359884
 30
0.0
 10
434.708698
 20
203.946894
 30
0.0
 10
435.555728
 20
206.451774
 30
0.0
 10
436.181548
 20
208.533954
 30
0.0
 10
436.847648
 20
210.987324
 30
0.0
 10
437.533558
 20
213.721584
 30
0.0
 10
438.218858
 20
216.646564
 30
0.0
 10
438.883038
 20
219.671994
 30
0.0
 10
439.505638
 20
222.707714
 30
0.0
 10
440.066258
 20
225.663454
 30
0.0
 10
440.544368
 20
228.449004
 30
0.0
 10
440.989668
 20
231.164904
 30
0.0
 10
441.433878
 20
233.771824
 30
0.0
 10
441.878348
 20
236.273154
 30
0.0
 10
442.324528
 20
238.672364
 30
0.0
 10
443.227788
 20
243.178014
 30
0.0
 10
444.155028
 20
247.316104
 30
0.0
 10
445.117628
 20
251.114035
 30
0.0
 10
446.126988
 20
254.599065
 30
0.0
 10
447.194558
 20
257.798625
 30
0.0
 10
448.331668
 20
260.740005
 30
0.0
 10
449.549728
 20
263.450605
 30
0.0
 10
450.860168
 20
265.957755
 30
0.0
 10
452.274358
 20
268.288785
 30
0.0
 10
453.803708
 20
270.471075
 30
0.0
 10
455.459588
 20
272.531945
 30
0.0
 10
457.253428
 20
274.498775
 30
0.0
 10
459.196598
 20
276.398895
 30
0.0
 10
461.300508
 20
278.259625
 30
0.0
 10
462.492948
 20
279.118415
 30
0.0
 10
463.849798
 20
279.827795
 30
0.0
 10
465.346908
 20
280.383195
 30
0.0
 10
466.960088
 20
280.779965
 30
0.0
 10
468.665148
 20
281.013545
 30
0.0
 10
470.437938
 20
281.079345
 30
0.0
 10
472.254228
 20
280.972765
 30
0.0
 10
474.089868
 20
280.689185
 30
0.0
  0
LWPOLYLINE
  5
10b
100
AcDbEntity
  8
Layer_0
 62
7
100
AcDbPolyline
 90
2
 70
0
 10
481.588899
 20
279.242725
 30
0.0
 10
481.588859
 20
279.243115
 30
0.0
  0
LWPOLYLINE
  5
10c
100
AcDbEntity
  8
Layer_0
 62
7
100
AcDbPolyline
 90
78
 70
1
 10
496.374299
 20
251.845815
 30
0.0
 10
496.424299
 20
248.290564
 30
0.0
 10
496.216049
 20
244.846734
 30
0.0
 10
495.720019
 20
241.404944
 30
0.0
 10
494.906739
 20
237.855624
 30
0.0
 10
494.371869
 20
236.006494
 30
0.0
 10
493.746619
 20
234.089444
 30
0.0
 10
493.027259
 20
232.090754
 30
0.0
 10
492.210159
 20
229.996814
 30
0.0
 10
491.291549
 20
227.793884
 30
0.0
 10
490.267829
 20
225.468344
 30
0.0
 10
489.135219
 20
223.006434
 30
0.0
 10
487.890089
 20
220.394554
 30
0.0
 10
487.070119
 20
218.735984
 30
0.0
 10
486.145869
 20
216.928384
 30
0.0
 10
485.138179
 20
215.007894
 30
0.0
 10
484.067889
 20
213.010714
 30
0.0
 10
481.823079
 20
208.930754
 30
0.0
 10
479.578269
 20
204.977784
 30
0.0
 10
478.508089
 20
203.139304
 30
0.0
 10
477.500509
 20
201.441014
 30
0.0
 10
476.576409
 20
199.919114
 30
0.0
 10
475.756629
 20
198.609694
 30
0.0
 10
475.062109
 20
197.548964
 30
0.0
 10
474.513659
 20
196.773074
 30
0.0
 10
474.300719
 20
196.503254
 30
0.0
 10
474.132148
 20
196.318164
 30
0.0
 10
474.010528
 20
196.222364
 30
0.0
 10
473.938428
 20
196.220364
 30
0.0
 10
473.941428
 20
196.314464
 30
0.0
 10
474.008228
 20
196.533144
 30
0.0
 10
474.135518
 20
196.869784
 30
0.0
 10
474.320299
 20
197.317844
 30
0.0
 10
474.559509
 20
197.870794
 30
0.0
 10
474.850079
 20
198.522044
 30
0.0
 10
475.188989
 20
199.265064
 30
0.0
 10
475.573099
 20
200.093304
 30
0.0
 10
476.464879
 20
201.979254
 30
0.0
 10
477.500929
 20
204.127384
 30
0.0
 10
478.656739
 20
206.485354
 30
0.0
 10
479.907879
 20
209.000704
 30
0.0
 10
481.719219
 20
212.699734
 30
0.0
 10
483.395209
 20
216.295384
 30
0.0
 10
484.937149
 20
219.792624
 30
0.0
 10
486.346419
 20
223.196314
 30
0.0
 10
487.624279
 20
226.511294
 30
0.0
 10
488.772079
 20
229.742564
 30
0.0
 10
489.791159
 20
232.894924
 30
0.0
 10
490.682859
 20
235.973274
 30
0.0
 10
491.448479
 20
238.982494
 30
0.0
 10
492.089409
 20
241.927494
 30
0.0
 10
492.606939
 20
244.813164
 30
0.0
 10
493.002389
 20
247.644374
 30
0.0
 10
493.277089
 20
250.425994
 30
0.0
 10
493.432389
 20
253.162975
 30
0.0
 10
493.469589
 20
255.860165
 30
0.0
 10
493.390089
 20
258.522425
 30
0.0
 10
493.311889
 20
260.042735
 30
0.0
 10
493.246189
 20
261.371395
 30
0.0
 10
493.194589
 20
262.515535
 30
0.0
 10
493.158489
 20
263.482445
 30
0.0
 10
493.139289
 20
264.279325
 30
0.0
 10
493.138419
 20
264.913495
 30
0.0
 10
493.157319
 20
265.392095
 30
0.0
 10
493.197419
 20
265.722385
 30
0.0
 10
493.260119
 20
265.911585
 30
0.0
 10
493.346919
 20
265.966985
 30
0.0
 10
493.459209
 20
265.895785
 30
0.0
 10
493.598449
 20
265.705215
 30
0.0
 10
493.766069
 20
265.402475
 30
0.0
 10
493.963439
 20
264.994855
 30
0.0
 10
494.192059
 20
264.489575
 30
0.0
 10
494.453339
 20
263.893845
 30
0.0
 10
494.767569
 20
263.016385
 30
0.0
 10
495.076389
 20
261.860495
 30
0.0
 10
495.371909
 20
260.475635
 30
0.0
 10
495.646229
 20
258.911175
 30
0.0
 10
496.099779
 20
255.441155
 30
0.0
  0
SPLINE
  5
10d
100
AcDbEntity
  8
Layer_0
 62
7
100
AcDbSpline
 70
8
 71
3
 72
8
 73
4
 74
0
 40
0
 40
0
 40
0
 40
0
 40
1
 40
1
 40
1
 40
1
 10
342.106296
 20
288.023485
 30
0.0
 10
339.469464
 20
286.824522
 30
0.0
 10
337.009171
 20
285.270240
 30
0.0
 10
334.793936
 20
283.403925
 30
0.0
  0
LWPOLYLINE
  5
10e
100
AcDbEntity
  8
Layer_0
 62
7
100
AcDbPolyline
 90
394
 70
1
 10
154.629713
 20
319.376066
 30
0.0
 10
151.329013
 20
318.387116
 30
0.0
 10
148.033943
 20
317.277486
 30
0.0
 10
144.777993
 20
316.061576
 30
0.0
 10
141.594573
 20
314.753746
 30
0.0
 10
138.517052
 20
313.368396
 30
0.0
 10
135.578892
 20
311.919856
 30
0.0
 10
132.813482
 20
310.422556
 30
0.0
 10
130.254212
 20
308.890796
 30
0.0
 10
127.079332
 20
306.730415
 30
0.0
 10
124.076462
 20
304.376565
 30
0.0
 10
121.255382
 20
301.848015
 30
0.0
 10
118.625932
 20
299.163645
 30
0.0
 10
116.197962
 20
296.342235
 30
0.0
 10
113.981272
 20
293.402625
 30
0.0
 10
111.985642
 20
290.363585
 30
0.0
 10
110.220982
 20
287.243995
 30
0.0
 10
108.697032
 20
284.062625
 30
0.0
 10
107.423642
 20
280.838305
 30
0.0
 10
106.410652
 20
277.589845
 30
0.0
 10
105.667822
 20
274.336085
 30
0.0
 10
105.205052
 20
271.095785
 30
0.0
 10
105.032102
 20
267.887835
 30
0.0
 10
105.158872
 20
264.731015
 30
0.0
 10
105.595062
 20
261.644125
 30
0.0
 10
106.160182
 20
259.110635
 30
0.0
 10
106.863742
 20
256.639085
 30
0.0
 10
107.723842
 20
254.206165
 30
0.0
 10
108.758452
 20
251.788705
 30
0.0
 10
109.985592
 20
249.363384
 30
0.0
 10
111.423282
 20
246.906994
 30
0.0
 10
113.089562
 20
244.396284
 30
0.0
 10
115.002462
 20
241.808034
 30
0.0
 10
117.179962
 20
239.118934
 30
0.0
 10
119.640092
 20
236.305794
 30
0.0
 10
122.400922
 20
233.345294
 30
0.0
 10
125.480402
 20
230.214254
 30
0.0
 10
127.145252
 20
228.577534
 30
0.0
 10
128.896572
 20
226.889404
 30
0.0
 10
130.736552
 20
225.147044
 30
0.0
 10
132.667482
 20
223.347494
 30
0.0
 10
134.691572
 20
221.487854
 30
0.0
 10
136.811092
 20
219.565244
 30
0.0
 10
139.028312
 20
217.576764
 30
0.0
 10
141.345503
 20
215.519484
 30
0.0
 10
143.220673
 20
213.850794
 30
0.0
 10
145.011723
 20
212.232774
 30
0.0
 10
146.720293
 20
210.662984
 30
0.0
 10
148.347983
 20
209.138894
 30
0.0
 10
151.367143
 20
206.217924
 30
0.0
 10
154.082133
 20
203.449874
 30
0.0
 10
156.505793
 20
200.814824
 30
0.0
 10
158.651013
 20
198.292934
 30
0.0
 10
160.530763
 20
195.864174
 30
0.0
 10
162.157883
 20
193.508693
 30
0.0
 10
163.545273
 20
191.206543
 30
0.0
 10
164.705853
 20
188.937803
 30
0.0
 10
165.652473
 20
186.682523
 30
0.0
 10
166.398103
 20
184.420813
 30
0.0
 10
166.955543
 20
182.132733
 30
0.0
 10
167.337763
 20
179.798343
 30
0.0
 10
167.557663
 20
177.397733
 30
0.0
 10
167.628063
 20
174.910993
 30
0.0
 10
167.578763
 20
172.951723
 30
0.0
 10
167.431703
 20
171.021223
 30
0.0
 10
167.188383
 20
169.120833
 30
0.0
 10
166.850113
 20
167.251973
 30
0.0
 10
166.418343
 20
165.415953
 30
0.0
 10
165.894463
 20
163.614103
 30
0.0
 10
165.279833
 20
161.847773
 30
0.0
 10
164.575893
 20
160.118383
 30
0.0
 10
162.905613
 20
156.775693
 30
0.0
 10
160.894783
 20
153.596763
 30
0.0
 10
158.554613
 20
150.592493
 30
0.0
 10
155.896283
 20
147.773683
 30
0.0
 10
152.930943
 20
145.151113
 30
0.0
 10
149.669783
 20
142.735613
 30
0.0
 10
146.123973
 20
140.538013
 30
0.0
 10
142.304723
 20
138.569142
 30
0.0
 10
138.223212
 20
136.839772
 30
0.0
 10
133.890552
 20
135.360732
 30
0.0
 10
129.318002
 20
134.142892
 30
0.0
 10
124.516682
 20
133.196992
 30
0.0
 10
122.838342
 20
132.924752
 30
0.0
 10
121.326152
 20
132.688722
 30
0.0
 10
119.957472
 20
132.488932
 30
0.0
 10
118.709402
 20
132.325362
 30
0.0
 10
116.484202
 20
132.106712
 30
0.0
 10
114.468352
 20
132.032612
 30
0.0
 10
112.479642
 20
132.102912
 30
0.0
 10
110.335852
 20
132.317442
 30
0.0
 10
109.148892
 20
132.478712
 30
0.0
 10
107.854822
 20
132.675962
 30
0.0
 10
106.430882
 20
132.909202
 30
0.0
 10
104.854332
 20
133.178382
 30
0.0
 10
100.772822
 20
133.991802
 30
0.0
 10
97.019752
 20
134.965192
 30
0.0
 10
93.586952
 20
136.102372
 30
0.0
 10
90.466422
 20
137.407102
 30
0.0
 10
87.650002
 20
138.883192
 30
0.0
 10
85.129542
 20
140.534473
 30
0.0
 10
82.897051
 20
142.364713
 30
0.0
 10
80.944321
 20
144.377683
 30
0.0
 10
79.844891
 20
145.668053
 30
0.0
 10
78.870001
 20
146.853763
 30
0.0
 10
78.012281
 20
147.957053
 30
0.0
 10
77.264461
 20
149.000083
 30
0.0
 10
76.069521
 20
150.994393
 30
0.0
 10
75.226801
 20
153.014393
 30
0.0
 10
74.919381
 20
154.089593
 30
0.0
 10
74.678131
 20
155.237853
 30
0.0
 10
74.495801
 20
156.481433
 30
0.0
 10
74.365141
 20
157.842513
 30
0.0
 10
74.278841
 20
159.343293
 30
0.0
 10
74.229541
 20
161.006023
 30
0.0
 10
74.210141
 20
162.852923
 30
0.0
 10
74.213141
 20
164.906223
 30
0.0
 10
74.226241
 20
166.584303
 30
0.0
 10
74.247941
 20
168.097393
 30
0.0
 10
74.281241
 20
169.461993
 30
0.0
 10
74.328941
 20
170.694653
 30
0.0
 10
74.479591
 20
172.830083
 30
0.0
 10
74.723181
 20
174.635673
 30
0.0
 10
75.083071
 20
176.243523
 30
0.0
 10
75.582611
 20
177.785613
 30
0.0
 10
76.245161
 20
179.394023
 30
0.0
 10
77.094001
 20
181.200793
 30
0.0
 10
78.127671
 20
183.204883
 30
0.0
 10
79.235791
 20
185.129423
 30
0.0
 10
80.413721
 20
186.970393
 30
0.0
 10
81.656881
 20
188.723673
 30
0.0
 10
82.960631
 20
190.385233
 30
0.0
 10
84.320392
 20
191.950903
 30
0.0
 10
85.731512
 20
193.416673
 30
0.0
 10
87.189392
 20
194.778403
 30
0.0
 10
88.689412
 20
196.032074
 30
0.0
 10
90.226962
 20
197.173604
 30
0.0
 10
91.797432
 20
198.198844
 30
0.0
 10
93.396202
 20
199.103774
 30
0.0
 10
95.018682
 20
199.884324
 30
0.0
 10
96.660202
 20
200.536364
 30
0.0
 10
98.316172
 20
201.055824
 30
0.0
 10
99.981992
 20
201.438654
 30
0.0
 10
101.428682
 20
201.786404
 30
0.0
 10
102.751672
 20
202.250384
 30
0.0
 10
103.915122
 20
202.803894
 30
0.0
 10
104.883212
 20
203.420294
 30
0.0
 10
105.620142
 20
204.072944
 30
0.0
 10
106.090092
 20
204.735154
 30
0.0
 10
106.257262
 20
205.380284
 30
0.0
 10
106.085822
 20
205.981714
 30
0.0
 10
105.775442
 20
206.267414
 30
0.0
 10
105.246502
 20
206.499024
 30
0.0
 10
104.521322
 20
206.677904
 30
0.0
 10
103.622362
 20
206.805464
 30
0.0
 10
102.572032
 20
206.883064
 30
0.0
 10
101.392742
 20
206.912064
 30
0.0
 10
100.106912
 20
206.893964
 30
0.0
 10
98.736982
 20
206.829964
 30
0.0
 10
95.834412
 20
206.570084
 30
0.0
 10
92.864422
 20
206.143494
 30
0.0
 10
90.006272
 20
205.561214
 30
0.0
 10
87.439372
 20
204.834304
 30
0.0
 10
84.251112
 20
203.619254
 30
0.0
 10
81.206321
 20
202.176314
 30
0.0
 10
78.313201
 20
200.516754
 30
0.0
 10
75.579961
 20
198.652014
 30
0.0
 10
73.014801
 20
196.593454
 30
0.0
 10
70.625951
 20
194.352383
 30
0.0
 10
68.421581
 20
191.940253
 30
0.0
 10
66.409921
 20
189.368323
 30
0.0
 10
64.599231
 20
186.648043
 30
0.0
 10
62.997621
 20
183.790763
 30
0.0
 10
61.613401
 20
180.807843
 30
0.0
 10
60.454671
 20
177.710633
 30
0.0
 10
59.529751
 20
174.510503
 30
0.0
 10
58.846791
 20
171.218843
 30
0.0
 10
58.413991
 20
167.846973
 30
0.0
 10
58.239571
 20
164.406283
 30
0.0
 10
58.229371
 20
163.164633
 30
0.0
 10
58.232371
 20
162.030773
 30
0.0
 10
58.250671
 20
160.992683
 30
0.0
 10
58.286871
 20
160.038473
 30
0.0
 10
58.422711
 20
158.333523
 30
0.0
 10
58.659231
 20
156.820203
 30
0.0
 10
59.015831
 20
155.402613
 30
0.0
 10
59.511891
 20
153.985063
 30
0.0
 10
60.166771
 20
152.471663
 30
0.0
 10
60.999891
 20
150.766643
 30
0.0
 10
62.136401
 20
148.714213
 30
0.0
 10
63.440711
 20
146.703243
 30
0.0
 10
64.902941
 20
144.740983
 30
0.0
 10
66.513201
 20
142.834593
 30
0.0
 10
68.261611
 20
140.991243
 30
0.0
 10
70.138221
 20
139.218182
 30
0.0
 10
72.133211
 20
137.522572
 30
0.0
 10
74.236631
 20
135.911632
 30
0.0
 10
76.438581
 20
134.392522
 30
0.0
 10
78.729201
 20
132.972442
 30
0.0
 10
81.098551
 20
131.658642
 30
0.0
 10
83.536761
 20
130.458222
 30
0.0
 10
86.033972
 20
129.378452
 30
0.0
 10
88.580242
 20
128.426502
 30
0.0
 10
91.165662
 20
127.609552
 30
0.0
 10
93.780382
 20
126.934802
 30
0.0
 10
95.486912
 20
126.613532
 30
0.0
 10
97.474752
 20
126.359702
 30
0.0
 10
99.706032
 20
126.171562
 30
0.0
 10
102.142882
 20
126.047172
 30
0.0
 10
104.747432
 20
125.984772
 30
0.0
 10
107.481772
 20
125.982772
 30
0.0
 10
110.308062
 20
126.038772
 30
0.0
 10
113.188402
 20
126.151252
 30
0.0
 10
118.959782
 20
126.538272
 30
0.0
 10
124.492892
 20
127.129162
 30
0.0
 10
127.075412
 20
127.496462
 30
0.0
 10
129.484742
 20
127.909222
 30
0.0
 10
131.682992
 20
128.365642
 30
0.0
 10
133.632282
 20
128.863812
 30
0.0
 10
136.935362
 20
129.877492
 30
0.0
 10
140.198043
 20
131.014212
 30
0.0
 10
143.410033
 20
132.267472
 30
0.0
 10
146.561183
 20
133.630672
 30
0.0
 10
149.641273
 20
135.097242
 30
0.0
 10
152.640133
 20
136.660602
 30
0.0
 10
155.547573
 20
138.314112
 30
0.0
 10
158.353343
 20
140.051263
 30
0.0
 10
161.047313
 20
141.865433
 30
0.0
 10
163.619283
 20
143.750013
 30
0.0
 10
166.059003
 20
145.698473
 30
0.0
 10
168.356353
 20
147.704233
 30
0.0
 10
170.501083
 20
149.760673
 30
0.0
 10
172.483033
 20
151.861183
 30
0.0
 10
174.291953
 20
153.999263
 30
0.0
 10
175.917713
 20
156.168293
 30
0.0
 10
178.252523
 20
159.678873
 30
0.0
 10
180.302343
 20
163.148783
 30
0.0
 10
182.067343
 20
166.580673
 30
0.0
 10
183.547713
 20
169.977023
 30
0.0
 10
184.743553
 20
173.340463
 30
0.0
 10
185.655103
 20
176.673553
 30
0.0
 10
186.282463
 20
179.978833
 30
0.0
 10
186.625763
 20
183.258933
 30
0.0
 10
186.685263
 20
186.516353
 30
0.0
 10
186.461023
 20
189.753713
 30
0.0
 10
185.953243
 20
192.973523
 30
0.0
 10
185.162073
 20
196.178454
 30
0.0
 10
184.087663
 20
199.371024
 30
0.0
 10
182.730213
 20
202.553764
 30
0.0
 10
181.089823
 20
205.729314
 30
0.0
 10
179.166683
 20
208.900194
 30
0.0
 10
177.281383
 20
211.668964
 30
0.0
 10
175.248563
 20
214.356014
 30
0.0
 10
174.123513
 20
215.723944
 30
0.0
 10
172.897693
 20
217.137594
 30
0.0
 10
171.549693
 20
218.618904
 30
0.0
 10
170.058283
 20
220.189944
 30
0.0
 10
168.402133
 20
221.872734
 30
0.0
 10
166.559923
 20
223.689334
 30
0.0
 10
164.510353
 20
225.661714
 30
0.0
 10
162.232053
 20
227.811964
 30
0.0
 10
159.703813
 20
230.162114
 30
0.0
 10
156.904243
 20
232.734124
 30
0.0
 10
155.396103
 20
234.110244
 30
0.0
 10
153.812103
 20
235.550094
 30
0.0
 10
152.149603
 20
237.056424
 30
0.0
 10
150.405993
 20
238.631994
 30
0.0
 10
148.460513
 20
240.399004
 30
0.0
 10
146.606543
 20
242.106294
 30
0.0
 10
144.842333
 20
243.756654
 30
0.0
 10
143.166193
 20
245.352974
 30
0.0
 10
141.576293
 20
246.897974
 30
0.0
 10
140.070983
 20
248.394444
 30
0.0
 10
138.648442
 20
249.845174
 30
0.0
 10
137.306942
 20
251.253015
 30
0.0
 10
134.860112
 20
253.950985
 30
0.0
 10
132.716512
 20
256.510745
 30
0.0
 10
130.862162
 20
258.954635
 30
0.0
 10
129.283082
 20
261.304895
 30
0.0
 10
127.965312
 20
263.583945
 30
0.0
 10
126.894832
 20
265.814095
 30
0.0
 10
126.057742
 20
268.017635
 30
0.0
 10
125.440022
 20
270.216975
 30
0.0
 10
125.027712
 20
272.434385
 30
0.0
 10
124.806792
 20
274.692205
 30
0.0
 10
124.763392
 20
277.012795
 30
0.0
 10
124.883432
 20
279.418465
 30
0.0
 10
125.267462
 20
282.472475
 30
0.0
 10
125.921402
 20
285.454105
 30
0.0
 10
126.841562
 20
288.355655
 30
0.0
 10
128.024292
 20
291.169285
 30
0.0
 10
129.465882
 20
293.887295
 30
0.0
 10
131.162662
 20
296.501935
 30
0.0
 10
133.110972
 20
299.005455
 30
0.0
 10
135.307142
 20
301.390065
 30
0.0
 10
137.049042
 20
303.058845
 30
0.0
 10
138.828862
 20
304.612795
 30
0.0
 10
140.649083
 20
306.052835
 30
0.0
 10
142.512203
 20
307.380056
 30
0.0
 10
144.420783
 20
308.595366
 30
0.0
 10
146.377263
 20
309.699776
 30
0.0
 10
148.384153
 20
310.694326
 30
0.0
 10
150.443953
 20
311.580016
 30
0.0
 10
152.559203
 20
312.357766
 30
0.0
 10
154.732363
 20
313.028676
 30
0.0
 10
156.965943
 20
313.593676
 30
0.0
 10
159.262463
 20
314.053756
 30
0.0
 10
161.624403
 20
314.409936
 30
0.0
 10
164.054303
 20
314.663246
 30
0.0
 10
166.554613
 20
314.814616
 30
0.0
 10
169.127863
 20
314.865116
 30
0.0
 10
173.076673
 20
314.738886
 30
0.0
 10
176.765643
 20
314.363876
 30
0.0
 10
180.187553
 20
313.747326
 30
0.0
 10
183.335223
 20
312.896396
 30
0.0
 10
186.201313
 20
311.818326
 30
0.0
 10
188.778723
 20
310.520286
 30
0.0
 10
191.060123
 20
309.009456
 30
0.0
 10
193.038323
 20
307.293066
 30
0.0
 10
194.706153
 20
305.378315
 30
0.0
 10
196.056274
 20
303.272365
 30
0.0
 10
197.081594
 20
300.982455
 30
0.0
 10
197.774754
 20
298.515755
 30
0.0
 10
197.994534
 20
297.218385
 30
0.0
 10
198.128594
 20
295.879495
 30
0.0
 10
198.175994
 20
294.500005
 30
0.0
 10
198.135894
 20
293.080825
 30
0.0
 10
198.007324
 20
291.622835
 30
0.0
 10
197.789394
 20
290.126975
 30
0.0
 10
197.481244
 20
288.594115
 30
0.0
 10
197.081904
 20
287.025155
 30
0.0
 10
196.090874
 20
284.071605
 30
0.0
 10
194.822843
 20
281.248265
 30
0.0
 10
193.303773
 20
278.588115
 30
0.0
 10
191.559593
 20
276.124315
 30
0.0
 10
189.616353
 20
273.889895
 30
0.0
 10
187.499893
 20
271.917935
 30
0.0
 10
185.236223
 20
270.241445
 30
0.0
 10
182.851263
 20
268.893555
 30
0.0
 10
180.832923
 20
267.862115
 30
0.0
 10
179.177903
 20
266.901595
 30
0.0
 10
178.540033
 20
266.481455
 30
0.0
 10
178.057123
 20
266.119265
 30
0.0
 10
177.750453
 20
265.828505
 30
0.0
 10
177.641483
 20
265.622525
 30
0.0
 10
177.836173
 20
265.231715
 30
0.0
 10
178.377173
 20
264.737845
 30
0.0
 10
179.181563
 20
264.204175
 30
0.0
 10
180.166553
 20
263.693985
 30
0.0
 10
180.739793
 20
263.487425
 30
0.0
 10
181.412503
 20
263.340825
 30
0.0
 10
182.175523
 20
263.252425
 30
0.0
 10
183.019603
 20
263.220625
 30
0.0
 10
184.914203
 20
263.320025
 30
0.0
 10
187.022763
 20
263.625335
 30
0.0
 10
189.271653
 20
264.123055
 30
0.0
 10
191.587303
 20
264.799595
 30
0.0
 10
193.896103
 20
265.641375
 30
0.0
 10
196.124504
 20
266.634855
 30
0.0
 10
198.142584
 20
267.799175
 30
0.0
 10
200.178434
 20
269.291375
 30
0.0
 10
202.176104
 20
271.049265
 30
0.0
 10
204.079544
 20
273.010615
 30
0.0
 10
205.832864
 20
275.113285
 30
0.0
 10
207.380094
 20
277.295015
 30
0.0
 10
208.665244
 20
279.493675
 30
0.0
 10
209.632354
 20
281.647025
 30
0.0
 10
210.588874
 20
284.683685
 30
0.0
 10
211.182374
 20
287.688225
 30
0.0
 10
211.420634
 20
290.648315
 30
0.0
 10
211.311524
 20
293.551635
 30
0.0
 10
210.862774
 20
296.385785
 30
0.0
 10
210.082234
 20
299.138415
 30
0.0
 10
208.977704
 20
301.797165
 30
0.0
 10
207.556934
 20
304.349705
 30
0.0
 10
205.827804
 20
306.783685
 30
0.0
 10
203.798084
 20
309.086736
 30
0.0
 10
201.475564
 20
311.246516
 30
0.0
 10
198.868064
 20
313.250646
 30
0.0
 10
195.983424
 20
315.086816
 30
0.0
 10
192.829363
 20
316.742626
 30
0.0
 10
189.413733
 20
318.205716
 30
0.0
 10
185.744343
 20
319.463806
 30
0.0
 10
184.520373
 20
319.768746
 30
0.0
 10
183.021943
 20
320.031836
 30
0.0
 10
181.287253
 20
320.253126
 30
0.0
 10
179.354523
 20
320.432726
 30
0.0
 10
175.047823
 20
320.667366
 30
0.0
 10
170.407693
 20
320.736566
 30
0.0
 10
165.739983
 20
320.641166
 30
0.0
 10
161.350513
 20
320.382086
 30
0.0
 10
159.355713
 20
320.191446
 30
0.0
 10
157.545133
 20
319.960176
 30
0.0
 10
155.957053
 20
319.688426
 30
0.0
  0
SPLINE
  5
10f
100
AcDbEntity
  8
Layer_0
 62
7
100
AcDbSpline
 70
8
 71
3
 72
8
 73
4
 74
0
 40
0
 40
0
 40
0
 40
0
 40
1
 40
1
 40
1
 40
1
 10
292.089585
 20
219.899354
 30
0.0
 10
290.197703
 20
216.921203
 30
0.0
 10
288.417529
 20
213.873543
 30
0.0
 10
286.752775
 20
210.762724
 30
0.0
  0
LWPOLYLINE
  5
110
100
AcDbEntity
  8
Layer_0
 62
7
100
AcDbPolyline
 90
25
 70
0
 10
334.793936
 20
283.403925
 30
0.0
 10
333.529266
 20
282.249055
 30
0.0
 10
332.124796
 20
280.803835
 30
0.0
 10
330.586446
 20
279.076895
 30
0.0
 10
328.920246
 20
277.076765
 30
0.0
 10
327.132116
 20
274.812115
 30
0.0
 10
325.228066
 20
272.291475
 30
0.0
 10
323.214026
 20
269.523455
 30
0.0
 10
321.095976
 20
266.516695
 30
0.0
 10
318.879856
 20
263.279715
 30
0.0
 10
316.571656
 20
259.821145
 30
0.0
 10
314.177366
 20
256.149605
 30
0.0
 10
311.702906
 20
252.273615
 30
0.0
 10
309.154226
 20
248.201824
 30
0.0
 10
306.537355
 20
243.942824
 30
0.0
 10
303.858195
 20
239.505164
 30
0.0
 10
301.122765
 20
234.897464
 30
0.0
 10
298.315215
 20
230.156654
 30
0.0
 10
295.676235
 20
225.748624
 30
0.0
 10
294.512595
 20
223.823184
 30
0.0
 10
293.502255
 20
222.165484
 30
0.0
 10
293.066135
 20
221.456254
 30
0.0
 10
292.682205
 20
220.837024
 30
0.0
 10
292.355165
 20
220.315524
 30
0.0
 10
292.089585
 20
219.899354
 30
0.0
  0
SPLINE
  5
111
100
AcDbEntity
  8
Layer_0
 62
7
100
AcDbSpline
 70
8
 71
3
 72
8
 73
4
 74
0
 40
0
 40
0
 40
0
 40
0
 40
1
 40
1
 40
1
 40
1
 10
321.303176
 20
183.654043
 30
0.0
 10
320.737402
 20
177.570985
 30
0.0
 10
320.166418
 20
171.488413
 30
0.0
 10
319.590226
 20
165.406333
 30
0.0
  0
LWPOLYLINE
  5
112
100
AcDbEntity
  8
Layer_0
 62
7
100
AcDbPolyline
 90
333
 70
0
 10
286.752775
 20
210.762724
 30
0.0
 10
286.012095
 20
209.432934
 30
0.0
 10
285.083095
 20
207.810804
 30
0.0
 10
284.003165
 20
205.959064
 30
0.0
 10
282.809665
 20
203.940564
 30
0.0
 10
280.231235
 20
199.654284
 30
0.0
 10
277.646685
 20
195.454284
 30
0.0
 10
276.435075
 20
193.492363
 30
0.0
 10
275.304735
 20
191.624973
 30
0.0
 10
274.280405
 20
189.895653
 30
0.0
 10
273.386855
 20
188.347933
 30
0.0
 10
272.648825
 20
187.025323
 30
0.0
 10
272.091045
 20
185.971373
 30
0.0
 10
271.887435
 20
185.558723
 30
0.0
 10
271.738185
 20
185.229563
 30
0.0
 10
271.646385
 20
184.989293
 30
0.0
 10
271.615085
 20
184.843403
 30
0.0
 10
271.546085
 20
184.488963
 30
0.0
 10
271.346495
 20
184.212903
 30
0.0
 10
271.027425
 20
184.012783
 30
0.0
 10
270.599965
 20
183.886093
 30
0.0
 10
270.075245
 20
183.830393
 30
0.0
 10
269.464325
 20
183.843193
 30
0.0
 10
268.778375
 20
183.921993
 30
0.0
 10
268.028405
 20
184.064403
 30
0.0
 10
266.381025
 20
184.530003
 30
0.0
 10
264.610995
 20
185.220143
 30
0.0
 10
262.807145
 20
186.115063
 30
0.0
 10
261.058315
 20
187.194983
 30
0.0
 10
259.799355
 20
188.071643
 30
0.0
 10
258.698565
 20
188.863913
 30
0.0
 10
257.752255
 20
189.584213
 30
0.0
 10
256.956695
 20
190.244953
 30
0.0
 10
256.308245
 20
190.858443
 30
0.0
 10
255.803225
 20
191.437093
 30
0.0
 10
255.437895
 20
191.993243
 30
0.0
 10
255.208625
 20
192.539313
 30
0.0
 10
255.111725
 20
193.087643
 30
0.0
 10
255.143425
 20
193.650643
 30
0.0
 10
255.300085
 20
194.240663
 30
0.0
 10
255.578035
 20
194.870113
 30
0.0
 10
255.973555
 20
195.551294
 30
0.0
 10
256.482965
 20
196.296654
 30
0.0
 10
257.102615
 20
197.118514
 30
0.0
 10
257.828775
 20
198.029304
 30
0.0
 10
259.314285
 20
199.954404
 30
0.0
 10
260.726425
 20
201.965764
 30
0.0
 10
262.054595
 20
204.034294
 30
0.0
 10
263.288225
 20
206.130874
 30
0.0
 10
264.416755
 20
208.226394
 30
0.0
 10
265.429555
 20
210.291794
 30
0.0
 10
266.316125
 20
212.297894
 30
0.0
 10
267.065755
 20
214.215664
 30
0.0
 10
267.667985
 20
216.015924
 30
0.0
 10
268.112155
 20
217.669624
 30
0.0
 10
268.387685
 20
219.147644
 30
0.0
 10
268.483985
 20
220.420854
 30
0.0
 10
268.390585
 20
221.460144
 30
0.0
 10
268.096765
 20
222.236464
 30
0.0
 10
267.871425
 20
222.516864
 30
0.0
 10
267.592005
 20
222.720614
 30
0.0
 10
267.257175
 20
222.844094
 30
0.0
 10
266.865695
 20
222.883594
 30
0.0
 10
265.813015
 20
222.803994
 30
0.0
 10
264.907215
 20
222.548494
 30
0.0
 10
264.105735
 20
222.062304
 30
0.0
 10
263.366045
 20
221.290484
 30
0.0
 10
263.006075
 20
220.780284
 30
0.0
 10
262.645585
 20
220.178134
 30
0.0
 10
262.279275
 20
219.477104
 30
0.0
 10
261.901855
 20
218.670364
 30
0.0
 10
261.507945
 20
217.751034
 30
0.0
 10
261.092315
 20
216.712304
 30
0.0
 10
260.649545
 20
215.547264
 30
0.0
 10
260.174375
 20
214.249034
 30
0.0
 10
259.127225
 20
211.505094
 30
0.0
 10
257.963015
 20
208.725104
 30
0.0
 10
256.737205
 20
206.018394
 30
0.0
 10
255.505265
 20
203.494124
 30
0.0
 10
254.904325
 20
202.334564
 30
0.0
 10
254.322615
 20
201.261594
 30
0.0
 10
253.767135
 20
200.288854
 30
0.0
 10
253.244765
 20
199.430034
 30
0.0
 10
252.762465
 20
198.698734
 30
0.0
 10
252.327135
 20
198.108674
 30
0.0
 10
251.945705
 20
197.673464
 30
0.0
 10
251.625165
 20
197.406774
 30
0.0
 10
251.416535
 20
197.365674
 30
0.0
 10
251.140625
 20
197.451774
 30
0.0
 10
250.802324
 20
197.657604
 30
0.0
 10
250.406414
 20
197.975654
 30
0.0
 10
249.957784
 20
198.398474
 30
0.0
 10
249.461304
 20
198.918574
 30
0.0
 10
248.921784
 20
199.528474
 30
0.0
 10
248.344044
 20
200.220734
 30
0.0
 10
247.093394
 20
201.822304
 30
0.0
 10
245.748154
 20
203.663544
 30
0.0
 10
244.347044
 20
205.684604
 30
0.0
 10
242.928814
 20
207.825664
 30
0.0
 10
241.532314
 20
210.026984
 30
0.0
 10
240.196214
 20
212.228704
 30
0.0
 10
238.959324
 20
214.371054
 30
0.0
 10
237.860384
 20
216.394234
 30
0.0
 10
236.938184
 20
218.238424
 30
0.0
 10
236.231484
 20
219.843854
 30
0.0
 10
235.971044
 20
220.538294
 30
0.0
 10
235.779044
 20
221.150654
 30
0.0
 10
235.660254
 20
221.673404
 30
0.0
 10
235.619554
 20
222.099094
 30
0.0
 10
235.680554
 20
222.481804
 30
0.0
 10
235.855244
 20
222.899784
 30
0.0
 10
236.131374
 20
223.339494
 30
0.0
 10
236.496784
 20
223.787444
 30
0.0
 10
237.446274
 20
224.654054
 30
0.0
 10
238.605754
 20
225.391594
 30
0.0
 10
240.115714
 20
226.236204
 30
0.0
 10
241.611204
 20
227.195444
 30
0.0
 10
243.080684
 20
228.255454
 30
0.0
 10
244.512784
 20
229.402274
 30
0.0
 10
247.219004
 20
231.900804
 30
0.0
 10
249.638354
 20
234.579624
 30
0.0
 10
250.711884
 20
235.951894
 30
0.0
 10
251.679375
 20
237.327494
 30
0.0
 10
252.529385
 20
238.692504
 30
0.0
 10
253.250525
 20
240.033024
 30
0.0
 10
253.831285
 20
241.335114
 30
0.0
 10
254.260295
 20
242.584924
 30
0.0
 10
254.526075
 20
243.768484
 30
0.0
 10
254.617275
 20
244.871884
 30
0.0
 10
254.540775
 20
246.182204
 30
0.0
 10
254.316945
 20
247.382244
 30
0.0
 10
253.954525
 20
248.473434
 30
0.0
 10
253.462095
 20
249.457244
 30
0.0
 10
252.848375
 20
250.335154
 30
0.0
 10
252.121985
 20
251.108635
 30
0.0
 10
251.291585
 20
251.779085
 30
0.0
 10
250.365864
 20
252.348055
 30
0.0
 10
249.353444
 20
252.816975
 30
0.0
 10
248.262974
 20
253.187295
 30
0.0
 10
247.103194
 20
253.460515
 30
0.0
 10
245.882624
 20
253.638075
 30
0.0
 10
244.610064
 20
253.721375
 30
0.0
 10
243.294064
 20
253.712375
 30
0.0
 10
241.943304
 20
253.611765
 30
0.0
 10
240.566494
 20
253.421345
 30
0.0
 10
237.769234
 20
252.777055
 30
0.0
 10
234.971474
 20
251.791205
 30
0.0
 10
232.242544
 20
250.475474
 30
0.0
 10
229.651674
 20
248.841624
 30
0.0
 10
228.429644
 20
247.909054
 30
0.0
 10
227.268114
 20
246.901364
 30
0.0
 10
226.175714
 20
245.820004
 30
0.0
 10
225.161104
 20
244.666414
 30
0.0
 10
224.232964
 20
243.442114
 30
0.0
 10
223.399924
 20
242.148534
 30
0.0
 10
222.670664
 20
240.787144
 30
0.0
 10
222.053844
 20
239.359424
 30
0.0
 10
221.513894
 20
237.570194
 30
0.0
 10
221.127254
 20
235.498674
 30
0.0
 10
220.894014
 20
233.246264
 30
0.0
 10
220.814314
 20
230.914264
 30
0.0
 10
220.888214
 20
228.604024
 30
0.0
 10
221.115934
 20
226.416924
 30
0.0
 10
221.497554
 20
224.454294
 30
0.0
 10
222.033224
 20
222.817494
 30
0.0
 10
222.130824
 20
222.366064
 30
0.0
 10
222.039124
 20
221.883384
 30
0.0
 10
221.743974
 20
221.355344
 30
0.0
 10
221.231134
 20
220.767814
 30
0.0
 10
220.486414
 20
220.106624
 30
0.0
 10
219.495534
 20
219.357754
 30
0.0
 10
218.244284
 20
218.506984
 30
0.0
 10
216.718454
 20
217.540214
 30
0.0
 10
214.084874
 20
215.791234
 30
0.0
 10
211.661374
 20
213.929024
 30
0.0
 10
209.459494
 20
211.966584
 30
0.0
 10
207.490814
 20
209.916944
 30
0.0
 10
205.766784
 20
207.793154
 30
0.0
 10
204.299004
 20
205.608244
 30
0.0
 10
203.098924
 20
203.375224
 30
0.0
 10
202.178154
 20
201.107164
 30
0.0
 10
201.715584
 20
199.658774
 30
0.0
 10
201.337624
 20
198.273094
 30
0.0
 10
201.045014
 20
196.945944
 30
0.0
 10
200.838504
 20
195.673224
 30
0.0
 10
200.718774
 20
194.450853
 30
0.0
 10
200.686574
 20
193.274663
 30
0.0
 10
200.742574
 20
192.140543
 30
0.0
 10
200.887594
 20
191.044403
 30
0.0
 10
201.122344
 20
189.982093
 30
0.0
 10
201.447494
 20
188.949523
 30
0.0
 10
201.863814
 20
187.942543
 30
0.0
 10
202.372004
 20
186.957033
 30
0.0
 10
202.972794
 20
185.988903
 30
0.0
 10
203.666914
 20
185.034043
 30
0.0
 10
204.455094
 20
184.088293
 30
0.0
 10
205.338024
 20
183.147533
 30
0.0
 10
206.836954
 20
181.749333
 30
0.0
 10
208.340334
 20
180.604893
 30
0.0
 10
209.909704
 20
179.693423
 30
0.0
 10
211.606674
 20
178.994173
 30
0.0
 10
213.492844
 20
178.486473
 30
0.0
 10
215.629834
 20
178.149483
 30
0.0
 10
216.811574
 20
178.038553
 30
0.0
 10
218.079154
 20
177.962553
 30
0.0
 10
219.440234
 20
177.918853
 30
0.0
 10
220.902504
 20
177.904853
 30
0.0
 10
223.088914
 20
177.932553
 30
0.0
 10
224.975164
 20
178.036263
 30
0.0
 10
226.680414
 20
178.246743
 30
0.0
 10
228.323864
 20
178.594913
 30
0.0
 10
230.024804
 20
179.111503
 30
0.0
 10
231.902434
 20
179.827423
 30
0.0
 10
232.944754
 20
180.269733
 30
0.0
 10
234.075964
 20
180.773433
 30
0.0
 10
235.310924
 20
181.342363
 30
0.0
 10
236.664604
 20
181.980423
 30
0.0
 10
245.240734
 20
186.056003
 30
0.0
 10
250.462794
 20
182.809773
 30
0.0
 10
251.826855
 20
182.002653
 30
0.0
 10
253.150605
 20
181.305173
 30
0.0
 10
254.450235
 20
180.711793
 30
0.0
 10
255.741805
 20
180.216863
 30
0.0
 10
258.365325
 20
179.500113
 30
0.0
 10
261.150315
 20
179.110333
 30
0.0
 10
262.248185
 20
179.010733
 30
0.0
 10
263.272405
 20
178.901123
 30
0.0
 10
264.200575
 20
178.785203
 30
0.0
 10
265.010265
 20
178.666533
 30
0.0
 10
265.679015
 20
178.548643
 30
0.0
 10
266.184495
 20
178.435183
 30
0.0
 10
266.504205
 20
178.329733
 30
0.0
 10
266.615735
 20
178.235833
 30
0.0
 10
266.584035
 20
178.082383
 30
0.0
 10
266.490735
 20
177.850583
 30
0.0
 10
266.338605
 20
177.544333
 30
0.0
 10
266.130545
 20
177.167583
 30
0.0
 10
265.557905
 20
176.218323
 30
0.0
 10
264.795575
 20
175.034273
 30
0.0
 10
263.866155
 20
173.646803
 30
0.0
 10
262.792385
 20
172.087443
 30
0.0
 10
261.596965
 20
170.387603
 30
0.0
 10
260.302515
 20
168.578723
 30
0.0
 10
257.507365
 20
164.759703
 30
0.0
 10
254.588395
 20
160.881983
 30
0.0
 10
253.139215
 20
158.999733
 30
0.0
 10
251.727105
 20
157.197173
 30
0.0
 10
250.374784
 20
155.505713
 30
0.0
 10
249.104904
 20
153.956823
 30
0.0
 10
246.194704
 20
150.580313
 30
0.0
 10
243.326274
 20
147.497653
 30
0.0
 10
240.492644
 20
144.705683
 30
0.0
 10
237.686684
 20
142.201173
 30
0.0
 10
234.901474
 20
139.981003
 30
0.0
 10
232.129954
 20
138.041952
 30
0.0
 10
229.365074
 20
136.380932
 30
0.0
 10
226.599824
 20
134.994712
 30
0.0
 10
223.827194
 20
133.880092
 30
0.0
 10
221.040174
 20
133.033962
 30
0.0
 10
218.231684
 20
132.453132
 30
0.0
 10
215.394774
 20
132.134442
 30
0.0
 10
212.522364
 20
132.074642
 30
0.0
 10
209.607444
 20
132.270652
 30
0.0
 10
206.642974
 20
132.719282
 30
0.0
 10
203.621954
 20
133.417322
 30
0.0
 10
201.839414
 20
133.893812
 30
0.0
 10
200.245554
 20
134.310912
 30
0.0
 10
198.827814
 20
134.669672
 30
0.0
 10
197.573654
 20
134.971162
 30
0.0
 10
196.470484
 20
135.216412
 30
0.0
 10
195.505764
 20
135.406562
 30
0.0
 10
194.666893
 20
135.542592
 30
0.0
 10
193.941343
 20
135.625592
 30
0.0
 10
192.779773
 20
135.636792
 30
0.0
 10
191.920543
 20
135.448642
 30
0.0
 10
191.263053
 20
135.069672
 30
0.0
 10
190.706783
 20
134.508332
 30
0.0
 10
190.077153
 20
133.519652
 30
0.0
 10
189.752643
 20
132.466632
 30
0.0
 10
189.713143
 20
131.367062
 30
0.0
 10
189.938633
 20
130.238792
 30
0.0
 10
190.408953
 20
129.099602
 30
0.0
 10
191.104003
 20
127.967372
 30
0.0
 10
192.003763
 20
126.859892
 30
0.0
 10
193.088073
 20
125.795012
 30
0.0
 10
194.336823
 20
124.790492
 30
0.0
 10
195.729964
 20
123.864242
 30
0.0
 10
197.247404
 20
123.034032
 30
0.0
 10
198.869014
 20
122.317702
 30
0.0
 10
200.574754
 20
121.733042
 30
0.0
 10
202.344434
 20
121.297902
 30
0.0
 10
204.158084
 20
121.030122
 30
0.0
 10
205.995494
 20
120.947522
 30
0.0
 10
209.238564
 20
121.111142
 30
0.0
 10
212.509814
 20
121.544012
 30
0.0
 10
215.803714
 20
122.242622
 30
0.0
 10
219.114734
 20
123.203452
 30
0.0
 10
222.437274
 20
124.422952
 30
0.0
 10
225.765794
 20
125.897682
 30
0.0
 10
229.094724
 20
127.624062
 30
0.0
 10
232.418514
 20
129.598632
 30
0.0
 10
235.731614
 20
131.817862
 30
0.0
 10
239.028454
 20
134.278222
 30
0.0
 10
242.303494
 20
136.976202
 30
0.0
 10
245.551164
 20
139.908323
 30
0.0
 10
248.765914
 20
143.071063
 30
0.0
 10
251.942195
 20
146.460883
 30
0.0
 10
255.074405
 20
150.074303
 30
0.0
 10
258.157065
 20
153.907763
 30
0.0
 10
259.298705
 20
155.399543
 30
0.0
 10
260.514125
 20
157.022473
 30
0.0
 10
261.786055
 20
158.751303
 30
0.0
 10
263.097205
 20
160.560903
 30
0.0
 10
265.768345
 20
164.321533
 30
0.0
 10
268.389495
 20
168.102873
 30
0.0
 10
269.638205
 20
169.938333
 30
0.0
 10
270.822675
 20
171.703403
 30
0.0
 10
271.925695
 20
173.372863
 30
0.0
 10
272.929945
 20
174.921523
 30
0.0
 10
273.818215
 20
176.324253
 30
0.0
 10
274.573255
 20
177.555783
 30
0.0
 10
275.177825
 20
178.590953
 30
0.0
 10
275.614665
 20
179.404613
 30
0.0
 10
275.773175
 20
179.702363
 30
0.0
 10
276.033285
 20
180.167583
 30
0.0
 10
276.381265
 20
180.776613
 30
0.0
 10
276.803395
 20
181.505873
 30
0.0
 10
277.815325
 20
183.230893
 30
0.0
 10
278.959275
 20
185.153873
 30
0.0
 10
281.803945
 20
189.903263
 30
0.0
 10
301.843335
 20
189.903263
 30
0.0
 10
321.882696
 20
189.903263
 30
0.0
 10
321.303176
 20
183.654043
 30
0.0
  0
LWPOLYLINE
  5
113
100
AcDbEntity
  8
Layer_0
 62
7
100
AcDbPolyline
 90
174
 70
0
 10
319.590226
 20
165.406333
 30
0.0
 10
319.335596
 20
162.525053
 30
0.0
 10
319.135956
 20
159.837923
 30
0.0
 10
318.992566
 20
157.333983
 30
0.0
 10
318.906566
 20
155.002203
 30
0.0
 10
318.879266
 20
152.831503
 30
0.0
 10
318.911866
 20
150.810933
 30
0.0
 10
319.005566
 20
148.929443
 30
0.0
 10
319.161586
 20
147.175973
 30
0.0
 10
319.381136
 20
145.539553
 30
0.0
 10
319.665436
 20
144.009103
 30
0.0
 10
320.015756
 20
142.573683
 30
0.0
 10
320.433286
 20
141.222163
 30
0.0
 10
321.474806
 20
138.726952
 30
0.0
 10
322.799836
 20
136.435232
 30
0.0
 10
324.310626
 20
134.377172
 30
0.0
 10
325.893526
 20
132.687722
 30
0.0
 10
327.592846
 20
131.347572
 30
0.0
 10
329.452896
 20
130.337422
 30
0.0
 10
330.457046
 20
129.950062
 30
0.0
 10
331.518036
 20
129.637942
 30
0.0
 10
332.641346
 20
129.398702
 30
0.0
 10
333.832576
 20
129.229872
 30
0.0
 10
335.097206
 20
129.129032
 30
0.0
 10
336.440866
 20
129.093832
 30
0.0
 10
337.868996
 20
129.121832
 30
0.0
 10
339.387236
 20
129.210632
 30
0.0
 10
341.015416
 20
129.364572
 30
0.0
 10
342.502966
 20
129.572782
 30
0.0
 10
343.870626
 20
129.841472
 30
0.0
 10
345.139106
 20
130.176942
 30
0.0
 10
347.461436
 20
131.073302
 30
0.0
 10
349.635956
 20
132.312002
 30
0.0
 10
350.596146
 20
132.973912
 30
0.0
 10
351.425336
 20
133.600362
 30
0.0
 10
352.123636
 20
134.188912
 30
0.0
 10
352.691246
 20
134.737172
 30
0.0
 10
353.128236
 20
135.242642
 30
0.0
 10
353.434796
 20
135.702912
 30
0.0
 10
353.610996
 20
136.115532
 30
0.0
 10
353.657096
 20
136.478062
 30
0.0
 10
353.573096
 20
136.788092
 30
0.0
 10
353.359216
 20
137.043132
 30
0.0
 10
353.015546
 20
137.240772
 30
0.0
 10
352.542236
 20
137.378572
 30
0.0
 10
351.939436
 20
137.454072
 30
0.0
 10
351.207306
 20
137.464872
 30
0.0
 10
350.345946
 20
137.408472
 30
0.0
 10
349.355526
 20
137.282502
 30
0.0
 10
347.675416
 20
137.004102
 30
0.0
 10
346.242256
 20
136.727172
 30
0.0
 10
345.665766
 20
136.599272
 30
0.0
 10
345.208026
 20
136.483812
 30
0.0
 10
344.887976
 20
136.384712
 30
0.0
 10
344.724616
 20
136.306012
 30
0.0
 10
344.431746
 20
136.257112
 30
0.0
 10
343.916296
 20
136.364482
 30
0.0
 10
343.250986
 20
136.606752
 30
0.0
 10
342.508536
 20
136.962292
 30
0.0
 10
342.016556
 20
137.312052
 30
0.0
 10
341.536666
 20
137.822132
 30
0.0
 10
341.071556
 20
138.481932
 30
0.0
 10
340.624056
 20
139.280772
 30
0.0
 10
340.196896
 20
140.208003
 30
0.0
 10
339.792826
 20
141.253003
 30
0.0
 10
339.414576
 20
142.405153
 30
0.0
 10
339.064896
 20
143.653763
 30
0.0
 10
338.462326
 20
146.397883
 30
0.0
 10
338.007116
 20
149.400223
 30
0.0
 10
337.721266
 20
152.575673
 30
0.0
 10
337.626866
 20
155.839073
 30
0.0
 10
337.658866
 20
157.609593
 30
0.0
 10
337.742566
 20
159.709603
 30
0.0
 10
337.872246
 20
162.080503
 30
0.0
 10
338.042026
 20
164.663693
 30
0.0
 10
338.478826
 20
170.232533
 30
0.0
 10
339.006476
 20
175.947293
 30
0.0
 10
339.289906
 20
178.712843
 30
0.0
 10
339.578666
 20
181.339123
 30
0.0
 10
339.866926
 20
183.767433
 30
0.0
 10
340.148916
 20
185.939223
 30
0.0
 10
340.418776
 20
187.795883
 30
0.0
 10
340.670756
 20
189.278813
 30
0.0
 10
340.788226
 20
189.861813
 30
0.0
 10
340.899036
 20
190.329413
 30
0.0
 10
341.002486
 20
190.674253
 30
0.0
 10
341.097886
 20
190.889043
 30
0.0
 10
341.288866
 20
191.092993
 30
0.0
 10
341.592966
 20
191.283703
 30
0.0
 10
341.994466
 20
191.456993
 30
0.0
 10
342.477716
 20
191.608663
 30
0.0
 10
343.626846
 20
191.830303
 30
0.0
 10
344.915136
 20
191.914903
 30
0.0
 10
346.272816
 20
191.984403
 30
0.0
 10
347.803556
 20
192.174963
 30
0.0
 10
349.473206
 20
192.474073
 30
0.0
 10
351.247616
 20
192.869193
 30
0.0
 10
354.974266
 20
193.897033
 30
0.0
 10
358.710366
 20
195.157993
 30
0.0
 10
360.496646
 20
195.844474
 30
0.0
 10
362.182846
 20
196.551474
 30
0.0
 10
363.734877
 20
197.266484
 30
0.0
 10
365.118597
 20
197.976914
 30
0.0
 10
366.299817
 20
198.670194
 30
0.0
 10
367.244467
 20
199.333734
 30
0.0
 10
367.918397
 20
199.955014
 30
0.0
 10
368.287387
 20
200.521374
 30
0.0
 10
368.465257
 20
201.037164
 30
0.0
 10
368.575087
 20
201.486214
 30
0.0
 10
368.613487
 20
201.868734
 30
0.0
 10
368.577287
 20
202.184784
 30
0.0
 10
368.463067
 20
202.434604
 30
0.0
 10
368.267477
 20
202.618334
 30
0.0
 10
367.987227
 20
202.736104
 30
0.0
 10
367.618947
 20
202.788104
 30
0.0
 10
367.159287
 20
202.774404
 30
0.0
 10
366.604977
 20
202.695304
 30
0.0
 10
365.952637
 20
202.550814
 30
0.0
 10
365.198957
 20
202.341164
 30
0.0
 10
364.340587
 20
202.066464
 30
0.0
 10
363.374197
 20
201.726914
 30
0.0
 10
362.296466
 20
201.322654
 30
0.0
 10
361.104066
 20
200.853834
 30
0.0
 10
357.890746
 20
199.709434
 30
0.0
 10
354.315506
 20
198.666134
 30
0.0
 10
352.528396
 20
198.218374
 30
0.0
 10
350.814226
 20
197.839064
 30
0.0
 10
349.227466
 20
197.542634
 30
0.0
 10
347.822656
 20
197.343414
 30
0.0
 10
341.540356
 20
196.636714
 30
0.0
 10
342.133326
 20
201.019044
 30
0.0
 10
342.780126
 20
205.760614
 30
0.0
 10
343.403516
 20
210.242944
 30
0.0
 10
344.011566
 20
214.514264
 30
0.0
 10
344.612356
 20
218.622604
 30
0.0
 10
345.824566
 20
226.542874
 30
0.0
 10
347.104956
 20
234.388604
 30
0.0
 10
347.790986
 20
238.403824
 30
0.0
 10
348.518356
 20
242.544714
 30
0.0
 10
349.295156
 20
246.859424
 30
0.0
 10
350.129486
 20
251.396025
 30
0.0
 10
351.029466
 20
256.202645
 30
0.0
 10
352.003186
 20
261.327415
 30
0.0
 10
352.520226
 20
264.024145
 30
0.0
 10
353.058736
 20
266.818425
 30
0.0
 10
353.619736
 20
269.716305
 30
0.0
 10
354.204236
 20
272.723785
 30
0.0
 10
354.686426
 20
275.218695
 30
0.0
 10
355.136266
 20
277.581495
 30
0.0
 10
355.543886
 20
279.757905
 30
0.0
 10
355.899506
 20
281.693735
 30
0.0
 10
356.193246
 20
283.334735
 30
0.0
 10
356.415216
 20
284.626695
 30
0.0
 10
356.496216
 20
285.124795
 30
0.0
 10
356.555616
 20
285.515335
 30
0.0
 10
356.592116
 20
285.791465
 30
0.0
 10
356.604616
 20
285.946425
 30
0.0
 10
356.541916
 20
286.205895
 30
0.0
 10
356.362016
 20
286.490825
 30
0.0
 10
356.077186
 20
286.795345
 30
0.0
 10
355.699686
 20
287.113625
 30
0.0
 10
354.715686
 20
287.767935
 30
0.0
 10
353.508206
 20
288.406785
 30
0.0
 10
352.175276
 20
288.983235
 30
0.0
 10
350.815106
 20
289.450355
 30
0.0
 10
349.525716
 20
289.761215
 30
0.0
 10
348.405316
 20
289.868895
 30
0.0
 10
347.861776
 20
289.827295
 30
0.0
 10
347.196926
 20
289.716515
 30
0.0
 10
346.436556
 20
289.544165
 30
0.0
 10
345.606496
 20
289.317855
 30
0.0
 10
343.840776
 20
288.733385
 30
0.0
 10
342.106426
 20
288.023735
 30
0.0
 10
342.106296
 20
288.023485
 30
0.0
  0
SPLINE
  5
114
100
AcDbEntity
  8
Layer_0
 62
7
100
AcDbSpline
 70
8
 71
3
 72
8
 73
4
 74
0
 40
0
 40
0
 40
0
 40
0
 40
1
 40
1
 40
1
 40
1
 10
332.022336
 20
239.896874
 30
0.0
 10
330.855022
 20
234.406438
 30
0.0
 10
329.730664
 20
228.906956
 30
0.0
 10
328.649366
 20
223.398934
 30
0.0
  0
SPLINE
  5
115
100
AcDbEntity
  8
Layer_0
 62
7
100
AcDbSpline
 70
8
 71
3
 72
8
 73
4
 74
0
 40
0
 40
0
 40
0
 40
0
 40
1
 40
1
 40
1
 40
1
 10
328.649366
 20
223.398934
 30
0.0
 10
327.641782
 20
218.149863
 30
0.0
 10
326.635635
 20
212.900516
 30
0.0
 10
325.630926
 20
207.650894
 30
0.0
  0
LWPOLYLINE
  5
116
100
AcDbEntity
  8
Layer_0
 62
7
100
AcDbPolyline
 90
19
 70
0
 10
339.606596
 20
277.585005
 30
0.0
 10
339.592996
 20
277.472905
 30
0.0
 10
339.552896
 20
277.232035
 30
0.0
 10
339.487396
 20
276.868295
 30
0.0
 10
339.397896
 20
276.387795
 30
0.0
 10
339.285486
 20
275.796455
 30
0.0
 10
339.151426
 20
275.100345
 30
0.0
 10
338.996926
 20
274.305465
 30
0.0
 10
338.823176
 20
273.417765
 30
0.0
 10
338.422776
 20
271.388125
 30
0.0
 10
337.959896
 20
269.059405
 30
0.0
 10
337.444216
 20
266.479725
 30
0.0
 10
336.885376
 20
263.697095
 30
0.0
 10
335.676986
 20
257.715235
 30
0.0
 10
334.412126
 20
251.498325
 30
0.0
 10
333.782686
 20
248.421824
 30
0.0
 10
333.168096
 20
245.430704
 30
0.0
 10
332.578116
 20
242.573044
 30
0.0
 10
332.022336
 20
239.896874
 30
0.0
  0
SPLINE
  5
117
100
AcDbEntity
  8
Layer_0
 62
7
100
AcDbSpline
 70
8
 71
3
 72
8
 73
4
 74
0
 40
0
 40
0
 40
0
 40
0
 40
1
 40
1
 40
1
 40
1
 10
296.593445
 20
215.399874
 30
0.0
 10
298.854057
 20
219.397001
 30
0.0
 10
301.110448
 20
223.396513
 30
0.0
 10
303.362615
 20
227.398404
 30
0.0
  0
LWPOLYLINE
  5
118
100
AcDbEntity
  8
Layer_0
 62
7
100
AcDbPolyline
 90
31
 70
0
 10
325.630926
 20
207.650894
 30
0.0
 10
323.380786
 20
195.902344
 30
0.0
 10
304.997005
 20
195.902344
 30
0.0
 10
301.304225
 20
195.917644
 30
0.0
 10
297.859445
 20
195.961544
 30
0.0
 10
296.253605
 20
195.993244
 30
0.0
 10
294.738015
 20
196.030944
 30
0.0
 10
293.322085
 20
196.074244
 30
0.0
 10
292.015275
 20
196.122744
 30
0.0
 10
290.827035
 20
196.176044
 30
0.0
 10
289.766725
 20
196.233744
 30
0.0
 10
288.843765
 20
196.295544
 30
0.0
 10
288.067595
 20
196.361044
 30
0.0
 10
287.447685
 20
196.429844
 30
0.0
 10
286.993385
 20
196.501544
 30
0.0
 10
286.714145
 20
196.575844
 30
0.0
 10
286.619445
 20
196.652244
 30
0.0
 10
286.684045
 20
197.104804
 30
0.0
 10
286.925225
 20
197.794644
 30
0.0
 10
287.137175
 20
198.275894
 30
0.0
 10
287.423515
 20
198.873244
 30
0.0
 10
287.794325
 20
199.605684
 30
0.0
 10
288.259625
 20
200.492094
 30
0.0
 10
288.829495
 20
201.551464
 30
0.0
 10
289.514045
 20
202.802714
 30
0.0
 10
290.323315
 20
204.264744
 30
0.0
 10
291.267445
 20
205.956534
 30
0.0
 10
292.356435
 20
207.897024
 30
0.0
 10
293.600355
 20
210.105094
 30
0.0
 10
295.009365
 20
212.599734
 30
0.0
 10
296.593445
 20
215.399874
 30
0.0
  0
LWPOLYLINE
  5
119
100
AcDbEntity
  8
Layer_0
 62
7
100
AcDbPolyline
 90
23
 70
0
 10
303.362615
 20
227.398404
 30
0.0
 10
307.746946
 20
235.032594
 30
0.0
 10
312.129646
 20
242.377314
 30
0.0
 10
314.295536
 20
245.903574
 30
0.0
 10
316.431276
 20
249.312484
 30
0.0
 10
318.526836
 20
252.588955
 30
0.0
 10
320.572386
 20
255.717985
 30
0.0
 10
322.557966
 20
258.684655
 30
0.0
 10
324.473616
 20
261.473865
 30
0.0
 10
326.309486
 20
264.070625
 30
0.0
 10
328.055586
 20
266.459935
 30
0.0
 10
329.701986
 20
268.626815
 30
0.0
 10
331.238816
 20
270.556225
 30
0.0
 10
332.656146
 20
272.233165
 30
0.0
 10
333.944016
 20
273.642625
 30
0.0
 10
335.186196
 20
274.901845
 30
0.0
 10
336.296546
 20
275.956595
 30
0.0
 10
337.264596
 20
276.799625
 30
0.0
 10
338.079996
 20
277.423665
 30
0.0
 10
338.732296
 20
277.821455
 30
0.0
 10
339.211126
 20
277.985755
 30
0.0
 10
339.506086
 20
277.909355
 30
0.0
 10
339.606596
 20
277.585005
 30
0.0
  0
LWPOLYLINE
  5
11a
100
AcDbEntity
  8
Layer_0
 62
7
100
AcDbPolyline
 90
48
 70
1
 10
247.149824
 20
246.834764
 30
0.0
 10
247.567954
 20
245.970844
 30
0.0
 10
247.880144
 20
245.185044
 30
0.0
 10
248.088694
 20
244.448784
 30
0.0
 10
248.195844
 20
243.733624
 30
0.0
 10
248.203844
 20
243.011014
 30
0.0
 10
248.115144
 20
242.252464
 30
0.0
 10
247.931944
 20
241.429434
 30
0.0
 10
247.656494
 20
240.513464
 30
0.0
 10
247.301254
 20
239.650074
 30
0.0
 10
246.790224
 20
238.713994
 30
0.0
 10
246.142604
 20
237.723004
 30
0.0
 10
245.377514
 20
236.694744
 30
0.0
 10
243.571734
 20
234.597374
 30
0.0
 10
241.526104
 20
232.563574
 30
0.0
 10
239.393914
 20
230.735114
 30
0.0
 10
237.328444
 20
229.253614
 30
0.0
 10
236.368634
 20
228.687254
 30
0.0
 10
235.482974
 20
228.260764
 30
0.0
 10
234.690634
 20
227.991934
 30
0.0
 10
234.010774
 20
227.898334
 30
0.0
 10
233.687244
 20
227.993234
 30
0.0
 10
233.387304
 20
228.266414
 30
0.0
 10
233.112644
 20
228.700454
 30
0.0
 10
232.865084
 20
229.278084
 30
0.0
 10
232.646404
 20
229.981864
 30
0.0
 10
232.458374
 20
230.794544
 30
0.0
 10
232.302804
 20
231.698754
 30
0.0
 10
232.181444
 20
232.677124
 30
0.0
 10
232.048484
 20
234.786974
 30
0.0
 10
232.073784
 20
236.985294
 30
0.0
 10
232.271604
 20
239.133394
 30
0.0
 10
232.656134
 20
241.092474
 30
0.0
 10
233.318874
 20
243.214754
 30
0.0
 10
234.102674
 20
245.030624
 30
0.0
 10
235.015014
 20
246.547274
 30
0.0
 10
236.063454
 20
247.771954
 30
0.0
 10
237.255404
 20
248.711884
 30
0.0
 10
238.598384
 20
249.374324
 30
0.0
 10
240.099874
 20
249.766484
 30
0.0
 10
241.767324
 20
249.895594
 30
0.0
 10
242.870044
 20
249.870694
 30
0.0
 10
243.780794
 20
249.782894
 30
0.0
 10
244.534134
 20
249.612594
 30
0.0
 10
245.164594
 20
249.340084
 30
0.0
 10
245.706804
 20
248.945694
 30
0.0
 10
246.195384
 20
248.409794
 30
0.0
 10
246.664804
 20
247.712694
 30
0.0
  0
LWPOLYLINE
  5
11b
100
AcDbEntity
  8
Layer_0
 62
7
100
AcDbPolyline
 90
64
 70
1
 10
227.120674
 20
211.150014
 30
0.0
 10
230.038614
 20
205.939254
 30
0.0
 10
233.262214
 20
200.805484
 30
0.0
 10
234.880984
 20
198.429904
 30
0.0
 10
236.446994
 20
196.268504
 30
0.0
 10
237.917194
 20
194.386223
 30
0.0
 10
239.248574
 20
192.848033
 30
0.0
 10
240.168884
 20
191.797703
 30
0.0
 10
240.922564
 20
190.826243
 30
0.0
 10
241.212604
 20
190.403883
 30
0.0
 10
241.431814
 20
190.041763
 30
0.0
 10
241.570444
 20
189.753433
 30
0.0
 10
241.618844
 20
189.552393
 30
0.0
 10
241.499264
 20
189.249243
 30
0.0
 10
241.157514
 20
188.892453
 30
0.0
 10
240.619084
 20
188.492163
 30
0.0
 10
239.909554
 20
188.058383
 30
0.0
 10
239.054394
 20
187.601293
 30
0.0
 10
238.079204
 20
187.130893
 30
0.0
 10
237.009444
 20
186.657273
 30
0.0
 10
235.870674
 20
186.190583
 30
0.0
 10
233.488134
 20
185.318043
 30
0.0
 10
231.135794
 20
184.593953
 30
0.0
 10
230.034784
 20
184.312763
 30
0.0
 10
229.017864
 20
184.098953
 30
0.0
 10
228.110624
 20
183.962513
 30
0.0
 10
227.338544
 20
183.913613
 30
0.0
 10
225.322244
 20
184.000313
 30
0.0
 10
223.431724
 20
184.266963
 30
0.0
 10
221.671714
 20
184.707273
 30
0.0
 10
220.046924
 20
185.314953
 30
0.0
 10
218.562064
 20
186.083663
 30
0.0
 10
217.221844
 20
187.007153
 30
0.0
 10
216.030954
 20
188.079063
 30
0.0
 10
214.994114
 20
189.293123
 30
0.0
 10
214.115984
 20
190.643023
 30
0.0
 10
213.401344
 20
192.122483
 30
0.0
 10
212.854824
 20
193.725193
 30
0.0
 10
212.481224
 20
195.444834
 30
0.0
 10
212.285144
 20
197.275114
 30
0.0
 10
212.271344
 20
199.209704
 30
0.0
 10
212.444524
 20
201.242374
 30
0.0
 10
212.809434
 20
203.366764
 30
0.0
 10
213.138854
 20
204.723054
 30
0.0
 10
213.531514
 20
205.966894
 30
0.0
 10
214.003574
 20
207.126484
 30
0.0
 10
214.571144
 20
208.230114
 30
0.0
 10
215.250474
 20
209.306034
 30
0.0
 10
216.057674
 20
210.382554
 30
0.0
 10
217.008944
 20
211.487834
 30
0.0
 10
218.120464
 20
212.650234
 30
0.0
 10
219.835384
 20
214.300034
 30
0.0
 10
221.372214
 20
215.650724
 30
0.0
 10
222.021314
 20
216.170374
 30
0.0
 10
222.562914
 20
216.562944
 30
0.0
 10
222.975984
 20
216.811074
 30
0.0
 10
223.239534
 20
216.897274
 30
0.0
 10
223.477834
 20
216.779544
 30
0.0
 10
223.818474
 20
216.443054
 30
0.0
 10
224.245604
 20
215.911344
 30
0.0
 10
224.743214
 20
215.208014
 30
0.0
 10
225.295444
 20
214.356634
 30
0.0
 10
225.886374
 20
213.380804
 30
0.0
 10
226.500094
 20
212.304054
 30
0.0
  0
ENDSEC
  0
SECTION
  2
OBJECTS
  0
DICTIONARY
  5
C
330
0
100
AcDbDictionary
  3
ACAD_GROUP
350
D
  3
ACAD_MLINESTYLE
350
17
  0
DICTIONARY
  5
D
330
C
100
AcDbDictionary
  0
DICTIONARY
  5
1A
330
C
100
AcDbDictionary
  0
DICTIONARY
  5
17
330
C
100
AcDbDictionary
  3
STANDARD
350
18
  0
DICTIONARY
  5
19
330
C
100
AcDbDictionary
  0
ENDSEC
  0
EOF
